<svg xmlns="http://www.w3.org/2000/svg" xmlns:xlink="http://www.w3.org/1999/xlink" width="236.423" height="54.595"
  viewBox="0 0 236.423 54.595">
  <defs>
    <clipPath id="clip-path">
      <path id="Path_301" data-name="Path 301" d="M0,0H236.423V-54.6H0Z" />
    </clipPath>
  </defs>
  <g id="Group_131" data-name="Group 131" transform="translate(0 54.595)">
    <g id="Group_49" data-name="Group 49" transform="translate(4.271 -54.354)">
      <path id="Path_295" data-name="Path 295"
        d="M0,0-4.27,11.423h3.055L-.5,9.375H3.489l.7,2.048H7.3L3.025,0ZM1.488,3.168h.033l1.263,4H.192Z" />
    </g>
    <g id="Group_50" data-name="Group 50" transform="translate(20.582 -54.354)">
      <path id="Path_296" data-name="Path 296" d="M0,0V7.04H-.032L-4,0H-7.055V11.423h2.8V4.3h.031l3.968,7.119H2.8V0Z" />
    </g>
    <path id="Path_297" data-name="Path 297" d="M26.285-48.436h4.976v2.3H26.285Z" />
    <path id="Path_298" data-name="Path 298" d="M34.177-42.932h2.976V-54.355H34.177Z" />
    <g id="Group_53" data-name="Group 53" clip-path="url(#clip-path)">
      <g id="Group_51" data-name="Group 51" transform="translate(47.602 -50.276)">
        <path id="Path_299" data-name="Path 299"
          d="M0,0A2.07,2.07,0,0,0-2.3-1.758c-1.92,0-2.656,1.694-2.656,3.39S-4.224,5.024-2.3,5.024A2.12,2.12,0,0,0,0,2.913H2.977C2.815,5.856.657,7.585-2.24,7.585A5.624,5.624,0,0,1-7.935,1.632,5.623,5.623,0,0,1-2.24-4.319C.224-4.319,2.9-2.751,2.977,0Z" />
      </g>
      <g id="Group_52" data-name="Group 52" transform="translate(58.168 -54.595)">
        <path id="Path_300" data-name="Path 300"
          d="M0,0C3.6,0,5.632,2.641,5.632,5.952S3.6,11.9,0,11.9s-5.631-2.64-5.631-5.952S-3.6,0,0,0M0,9.344c1.919,0,2.656-1.7,2.656-3.392S1.919,2.561,0,2.561-2.656,4.255-2.656,5.952-1.92,9.344,0,9.344" />
      </g>
    </g>
    <g id="Group_54" data-name="Group 54" transform="translate(73.248 -54.354)">
      <path id="Path_302" data-name="Path 302" d="M0,0V7.04H-.033L-4,0H-7.055V11.423h2.8V4.3h.031l3.968,7.119H2.8V0Z" />
    </g>
    <g id="Group_56" data-name="Group 56" clip-path="url(#clip-path)">
      <g id="Group_55" data-name="Group 55" transform="translate(84.085 -54.595)">
        <path id="Path_303" data-name="Path 303"
          d="M0,0C3.6,0,5.633,2.641,5.633,5.952S3.6,11.9,0,11.9s-5.631-2.64-5.631-5.952S-3.6,0,0,0M0,9.344c1.92,0,2.656-1.7,2.656-3.392S1.92,2.561,0,2.561-2.656,4.255-2.656,5.952-1.919,9.344,0,9.344" />
      </g>
    </g>
    <g id="Group_57" data-name="Group 57" transform="translate(92.14 -54.354)">
      <path id="Path_305" data-name="Path 305" d="M0,0V11.423H8.3V8.862H2.977V0Z" />
    </g>
    <g id="Group_60" data-name="Group 60" clip-path="url(#clip-path)">
      <g id="Group_58" data-name="Group 58" transform="translate(107.922 -54.595)">
        <path id="Path_306" data-name="Path 306"
          d="M0,0C3.6,0,5.632,2.641,5.632,5.952S3.6,11.9,0,11.9s-5.631-2.64-5.631-5.952S-3.6,0,0,0M0,9.344c1.919,0,2.656-1.7,2.656-3.392S1.919,2.561,0,2.561-2.656,4.255-2.656,5.952-1.92,9.344,0,9.344" />
      </g>
      <g id="Group_59" data-name="Group 59" transform="translate(126.52 -42.932)">
        <path id="Path_307" data-name="Path 307"
          d="M0,0H-1.92L-2.1-1.248A3.894,3.894,0,0,1-5.279.241a5.623,5.623,0,0,1-5.7-5.953,5.624,5.624,0,0,1,5.7-5.952c2.368,0,4.9,1.266,5.168,4.129H-3.087C-3.183-8.512-4.143-9.1-5.343-9.1-7.263-9.1-8-7.408-8-5.712S-7.263-2.32-5.343-2.32c1.472,0,2.464-.688,2.624-1.727H-4.8V-6.256H0Z" />
      </g>
    </g>
    <g id="Group_61" data-name="Group 61" transform="translate(135.824 -54.354)">
      <path id="Path_309" data-name="Path 309"
        d="M0,0-2.273,4.64-4.544,0H-7.92l4.159,7.169v4.254H-.785V7.169L3.375,0Z" />
    </g>
    <g id="Group_62" data-name="Group 62" transform="translate(1.137 -34.345)">
      <path id="Path_310" data-name="Path 310" d="M0,0H2.975V4.16H6.9V0H9.871V11.423H6.9v-4.7H2.975v4.7H0Z" />
    </g>
    <path id="Path_311" data-name="Path 311" d="M15.414-32.265h-2.72v-2.08h2.72Zm-2.72,1.039h2.72v8.3h-2.72Z" />
    <g id="Group_69" data-name="Group 69" clip-path="url(#clip-path)">
      <g id="Group_63" data-name="Group 63" transform="translate(19.447 -25.657)">
        <path id="Path_312" data-name="Path 312"
          d="M0,0A1.118,1.118,0,0,0,.449.928a1.711,1.711,0,0,0,1.008.288c.527,0,1.279-.225,1.279-.88s-.847-.768-1.327-.88C-.3-.976-2.448-1.024-2.448-3.264c0-2,2.16-2.544,3.793-2.544,1.824,0,3.728.529,3.823,2.687H2.656A.779.779,0,0,0,2.3-3.839a1.607,1.607,0,0,0-.864-.208C.993-4.047.272-4,.272-3.424c0,.783,1.825.927,3.072,1.2A2.355,2.355,0,0,1,5.456.016c0,2.224-2.112,2.96-3.983,2.96C-.5,2.976-2.51,2.32-2.592,0Z" />
      </g>
      <g id="Group_64" data-name="Group 64" transform="translate(31.244 -29.465)">
        <path id="Path_313" data-name="Path 313"
          d="M0,0H-1.68V3.775c0,.657.384.8.975.8.225,0,.464-.032.7-.032v2c-.5.016-.993.081-1.488.081-2.32,0-2.912-.673-2.912-2.929V0H-5.776V-1.76H-4.4V-4.271h2.72V-1.76H0Z" />
      </g>
      <g id="Group_65" data-name="Group 65" transform="translate(36.429 -31.465)">
        <path id="Path_314" data-name="Path 314"
          d="M0,0A4.259,4.259,0,0,1,4.385,4.4,4.246,4.246,0,0,1,0,8.784,4.231,4.231,0,0,1-4.366,4.4,4.244,4.244,0,0,1,0,0M0,6.7c1.265,0,1.665-1.247,1.665-2.3S1.265,2.079,0,2.079-1.648,3.344-1.648,4.4-1.263,6.7,0,6.7" />
      </g>
      <g id="Group_66" data-name="Group 66" transform="translate(41.7 -31.226)">
        <path id="Path_315" data-name="Path 315"
          d="M0,0H2.639V1.457h.033A2.5,2.5,0,0,1,5.167-.16,2.9,2.9,0,0,1,5.808-.1v2.48a3.849,3.849,0,0,0-1.04-.16A1.911,1.911,0,0,0,2.72,4.192V8.3H0Z" />
      </g>
      <g id="Group_67" data-name="Group 67" transform="translate(53.27 -22.185)">
        <path id="Path_316" data-name="Path 316"
          d="M0,0C-.656,1.824-1.632,2.048-3.472,2.048h-1.28V-.161h.944A.965.965,0,0,0-2.72-1.088a11.477,11.477,0,0,0-.688-2.176L-5.553-9.04h2.882L-1.1-3.631h.032L.5-9.04H3.28Z" />
      </g>
      <g id="Group_68" data-name="Group 68" transform="translate(55.993 -25.898)">
        <path id="Path_317" data-name="Path 317"
          d="M0,0H2.977V2.64A3.038,3.038,0,0,1,0,5.76V4.48a1.539,1.539,0,0,0,1.312-1.5H0Z" />
      </g>
    </g>
    <g id="Group_70" data-name="Group 70" transform="translate(73.533 -31.785)">
      <path id="Path_319" data-name="Path 319" d="M0,0H-3.408V8.864H-6.384V0H-9.792V-2.559H0Z" />
    </g>
    <g id="Group_85" data-name="Group 85" clip-path="url(#clip-path)">
      <g id="Group_71" data-name="Group 71" transform="translate(74.737 -34.345)">
        <path id="Path_320" data-name="Path 320"
          d="M0,0H2.72V4.255h.033A2.9,2.9,0,0,1,5.281,2.88c2.767,0,2.992,2.015,2.992,3.215v5.328H5.553V7.407c0-1.135.128-2.287-1.36-2.287C3.169,5.12,2.72,5.983,2.72,6.9v4.527H0Z" />
      </g>
      <g id="Group_72" data-name="Group 72" transform="translate(87.142 -26.409)">
        <path id="Path_321" data-name="Path 321"
          d="M0,0A1.773,1.773,0,0,0,1.857,1.888,1.621,1.621,0,0,0,3.408.975H5.953c-.5,1.92-2.273,2.753-4.129,2.753A4.175,4.175,0,0,1-2.719-.688,4.358,4.358,0,0,1,1.76-5.056C4.736-5.056,6.225-2.815,6.1,0ZM3.376-1.52a1.683,1.683,0,0,0-1.616-1.7A1.794,1.794,0,0,0,0-1.52Z" />
      </g>
      <g id="Group_73" data-name="Group 73" transform="translate(98.57 -31.465)">
        <path id="Path_322" data-name="Path 322"
          d="M0,0A4.259,4.259,0,0,1,4.385,4.4,4.246,4.246,0,0,1,0,8.784,4.233,4.233,0,0,1-4.368,4.4,4.245,4.245,0,0,1,0,0M0,6.7c1.265,0,1.665-1.247,1.665-2.3S1.265,2.079,0,2.079-1.647,3.344-1.647,4.4-1.263,6.7,0,6.7" />
      </g>
      <g id="Group_74" data-name="Group 74" transform="translate(104.162 -31.226)">
        <path id="Path_323" data-name="Path 323"
          d="M0,0H2.639V1.457h.033A2.5,2.5,0,0,1,5.167-.16,2.9,2.9,0,0,1,5.808-.1v2.48a3.855,3.855,0,0,0-1.04-.16A1.911,1.911,0,0,0,2.72,4.192V8.3H0Z" />
      </g>
      <g id="Group_75" data-name="Group 75" transform="translate(115.732 -22.185)">
        <path id="Path_324" data-name="Path 324"
          d="M0,0C-.657,1.824-1.632,2.048-3.472,2.048h-1.28V-.161h.944A.965.965,0,0,0-2.72-1.088a11.477,11.477,0,0,0-.688-2.176L-5.553-9.04h2.881L-1.1-3.631h.032L.5-9.04H3.28Z" />
      </g>
      <g id="Group_76" data-name="Group 76" transform="translate(118.455 -25.898)">
        <path id="Path_325" data-name="Path 325"
          d="M0,0H2.977V2.64A3.038,3.038,0,0,1,0,5.76V4.48a1.539,1.539,0,0,0,1.312-1.5H0Z" />
      </g>
      <g id="Group_77" data-name="Group 77" transform="translate(127.677 -28.665)">
        <path id="Path_326" data-name="Path 326"
          d="M0,0A2.554,2.554,0,0,1,1.3-2.225,5.474,5.474,0,0,1,3.935-2.8c1.968,0,3.872.431,3.872,2.784V3.616a4.829,4.829,0,0,0,.32,2.127H5.392a3.264,3.264,0,0,1-.161-.783A3.75,3.75,0,0,1,2.495,5.984c-1.583,0-2.831-.8-2.831-2.512,0-2.7,2.943-2.5,4.832-2.88.462-.1.719-.256.719-.769,0-.623-.752-.863-1.312-.863A1.217,1.217,0,0,0,2.543,0ZM3.519,4.3c1.3,0,1.729-.737,1.665-2.449A7.684,7.684,0,0,1,3.5,2.3c-.608.144-1.119.4-1.119,1.055,0,.673.527.945,1.135.945" />
      </g>
      <g id="Group_78" data-name="Group 78" transform="translate(137.28 -31.226)">
        <path id="Path_327" data-name="Path 327"
          d="M0,0H2.641V1.136h.032A3.137,3.137,0,0,1,5.281-.239c2.767,0,2.992,2.015,2.992,3.215V8.3H5.553V4.288C5.553,3.153,5.681,2,4.193,2,3.169,2,2.72,2.864,2.72,3.777V8.3H0Z" />
      </g>
      <g id="Group_79" data-name="Group 79" transform="translate(155.589 -22.922)">
        <path id="Path_328" data-name="Path 328"
          d="M0,0H-2.592V-.959h-.033A2.652,2.652,0,0,1-4.912.241C-7.52.241-8.623-2-8.623-4.336c0-2.159,1.151-4.207,3.5-4.207A2.783,2.783,0,0,1-2.751-7.408h.031v-4.015H0ZM-5.9-4.239c0,1.136.415,2.4,1.664,2.4,1.327,0,1.615-1.263,1.615-2.32,0-1.2-.431-2.3-1.615-2.3C-5.489-6.464-5.9-5.3-5.9-4.239" />
      </g>
      <g id="Group_80" data-name="Group 80" transform="translate(161.962 -34.345)">
        <path id="Path_329" data-name="Path 329"
          d="M0,0H5.423C7.552,0,9.551.976,9.551,3.68c0,2.831-1.616,3.935-4.128,3.935H2.977v3.808H0ZM2.977,5.311h2c.927,0,1.6-.383,1.6-1.423a1.406,1.406,0,0,0-1.6-1.5h-2Z" />
      </g>
      <g id="Group_81" data-name="Group 81" transform="translate(172.912 -31.226)">
        <path id="Path_330" data-name="Path 330"
          d="M0,0H2.639V1.457h.032A2.5,2.5,0,0,1,5.167-.16a2.884,2.884,0,0,1,.64.064v2.48a3.842,3.842,0,0,0-1.039-.16A1.91,1.91,0,0,0,2.72,4.192V8.3H0Z" />
      </g>
      <g id="Group_82" data-name="Group 82" transform="translate(179.523 -28.665)">
        <path id="Path_331" data-name="Path 331"
          d="M0,0A2.554,2.554,0,0,1,1.3-2.225,5.474,5.474,0,0,1,3.935-2.8c1.968,0,3.872.431,3.872,2.784V3.616a4.829,4.829,0,0,0,.32,2.127H5.392A3.315,3.315,0,0,1,5.23,4.96,3.747,3.747,0,0,1,2.495,5.984c-1.584,0-2.831-.8-2.831-2.512,0-2.7,2.943-2.5,4.832-2.88.462-.1.719-.256.719-.769,0-.623-.752-.863-1.312-.863A1.217,1.217,0,0,0,2.543,0ZM3.519,4.3c1.3,0,1.729-.737,1.665-2.449A7.684,7.684,0,0,1,3.5,2.3c-.608.144-1.119.4-1.119,1.055,0,.673.527.945,1.135.945" />
      </g>
      <g id="Group_83" data-name="Group 83" transform="translate(194.535 -28.185)">
        <path id="Path_332" data-name="Path 332"
          d="M0,0A1.283,1.283,0,0,0-1.329-1.2c-1.52,0-1.76,1.3-1.76,2.448,0,1.073.464,2.176,1.616,2.176A1.459,1.459,0,0,0,.08,2H2.718A3.892,3.892,0,0,1-1.457,5.5,4.134,4.134,0,0,1-5.808,1.247,4.2,4.2,0,0,1-1.457-3.28c2.063,0,3.9,1.088,4.1,3.28Z" />
      </g>
      <g id="Group_84" data-name="Group 84" transform="translate(203.626 -29.465)">
        <path id="Path_333" data-name="Path 333"
          d="M0,0H-1.681V3.775c0,.657.385.8.976.8.225,0,.464-.032.7-.032v2c-.5.016-.993.081-1.488.081-2.32,0-2.913-.673-2.913-2.929V0H-5.776V-1.76H-4.4V-4.271h2.72V-1.76H0Z" />
      </g>
    </g>
    <path id="Path_335" data-name="Path 335" d="M207.661-32.265h-2.72v-2.08h2.72Zm-2.72,1.039h2.72v8.3h-2.72Z" />
    <g id="Group_91" data-name="Group 91" clip-path="url(#clip-path)">
      <g id="Group_86" data-name="Group 86" transform="translate(214.991 -28.185)">
        <path id="Path_336" data-name="Path 336"
          d="M0,0A1.282,1.282,0,0,0-1.329-1.2c-1.519,0-1.76,1.3-1.76,2.448,0,1.073.464,2.176,1.616,2.176A1.458,1.458,0,0,0,.08,2H2.719A3.893,3.893,0,0,1-1.457,5.5,4.134,4.134,0,0,1-5.808,1.247,4.2,4.2,0,0,1-1.457-3.28c2.063,0,3.9,1.088,4.1,3.28Z" />
      </g>
      <g id="Group_87" data-name="Group 87" transform="translate(221.395 -26.409)">
        <path id="Path_337" data-name="Path 337"
          d="M0,0A1.773,1.773,0,0,0,1.857,1.888,1.621,1.621,0,0,0,3.408.975H5.953c-.5,1.92-2.273,2.753-4.129,2.753A4.175,4.175,0,0,1-2.719-.688,4.358,4.358,0,0,1,1.76-5.056C4.737-5.056,6.225-2.815,6.1,0ZM3.376-1.52a1.683,1.683,0,0,0-1.616-1.7A1.794,1.794,0,0,0,0-1.52Z" />
      </g>
      <g id="Group_88" data-name="Group 88" transform="translate(230.968 -25.657)">
        <path id="Path_338" data-name="Path 338"
          d="M0,0A1.118,1.118,0,0,0,.449.928a1.709,1.709,0,0,0,1.008.288c.527,0,1.279-.225,1.279-.88s-.847-.768-1.327-.88C-.3-.976-2.448-1.024-2.448-3.264c0-2,2.16-2.544,3.793-2.544,1.824,0,3.728.529,3.823,2.687H2.656A.779.779,0,0,0,2.3-3.839a1.607,1.607,0,0,0-.864-.208C.993-4.047.272-4,.272-3.424c0,.783,1.824.927,3.072,1.2A2.355,2.355,0,0,1,5.456.016c0,2.224-2.112,2.96-3.983,2.96C-.5,2.976-2.512,2.32-2.592,0Z" />
      </g>
      <g id="Group_89" data-name="Group 89" transform="translate(5.023 -11.455)">
        <path id="Path_339" data-name="Path 339"
          d="M0,0A4.258,4.258,0,0,1,4.385,4.4,4.245,4.245,0,0,1,0,8.784,4.231,4.231,0,0,1-4.366,4.4,4.244,4.244,0,0,1,0,0M0,6.7c1.265,0,1.665-1.247,1.665-2.3S1.265,2.079,0,2.079-1.647,3.344-1.647,4.4-1.263,6.7,0,6.7" />
      </g>
      <g id="Group_90" data-name="Group 90" transform="translate(11.429 -9.456)">
        <path id="Path_340" data-name="Path 340"
          d="M0,0H-1.312V-1.76H0C0-4.145.832-4.879,3.152-4.879c.433,0,.88.031,1.311.047v1.919a6.026,6.026,0,0,0-.734-.046c-.625,0-1.009.079-1.009.831v.368H4.353V0H2.72V6.543H0Z" />
      </g>
    </g>
    <g id="Group_92" data-name="Group 92" transform="translate(21.914 -14.335)">
      <path id="Path_342" data-name="Path 342" d="M0,0H9.1V2.384H2.977v2h5.6v2.3h-5.6V8.862H9.264v2.561H0Z" />
    </g>
    <g id="Group_94" data-name="Group 94" clip-path="url(#clip-path)">
      <g id="Group_93" data-name="Group 93" transform="translate(32.767 -11.216)">
        <path id="Path_343" data-name="Path 343"
          d="M0,0H2.64V1.136h.033A3.135,3.135,0,0,1,5.28-.239c2.767,0,2.992,2.015,2.992,3.215V8.3H5.553V4.288C5.553,3.153,5.681,2,4.192,2,3.168,2,2.72,2.864,2.72,3.777V8.3H0Z" />
      </g>
    </g>
    <g id="Group_95" data-name="Group 95" transform="translate(47.795 -2.912)">
      <path id="Path_345" data-name="Path 345" d="M0,0H-3.136L-5.9-8.3h2.832l1.52,5.489h.032L.016-8.3H2.784Z" />
    </g>
    <path id="Path_346" data-name="Path 346" d="M54.264-12.255h-2.72v-2.08h2.72Zm-2.72,1.039h2.72v8.3h-2.72Z" />
    <g id="Group_104" data-name="Group 104" clip-path="url(#clip-path)">
      <g id="Group_96" data-name="Group 96" transform="translate(56.283 -11.216)">
        <path id="Path_347" data-name="Path 347"
          d="M0,0H2.639V1.457h.032A2.5,2.5,0,0,1,5.167-.16a2.884,2.884,0,0,1,.64.064v2.48a3.842,3.842,0,0,0-1.039-.16A1.91,1.91,0,0,0,2.72,4.192V8.3H0Z" />
      </g>
      <g id="Group_97" data-name="Group 97" transform="translate(66.685 -11.455)">
        <path id="Path_348" data-name="Path 348"
          d="M0,0A4.259,4.259,0,0,1,4.385,4.4,4.246,4.246,0,0,1,0,8.784,4.231,4.231,0,0,1-4.366,4.4,4.244,4.244,0,0,1,0,0M0,6.7c1.265,0,1.665-1.247,1.665-2.3S1.265,2.079,0,2.079-1.648,3.344-1.648,4.4-1.263,6.7,0,6.7" />
      </g>
      <g id="Group_98" data-name="Group 98" transform="translate(72.498 -11.216)">
        <path id="Path_349" data-name="Path 349"
          d="M0,0H2.641V1.136h.032A3.137,3.137,0,0,1,5.281-.239c2.767,0,2.992,2.015,2.992,3.215V8.3H5.553V4.288C5.553,3.153,5.681,2,4.193,2,3.169,2,2.72,2.864,2.72,3.777V8.3H0Z" />
      </g>
      <g id="Group_99" data-name="Group 99" transform="translate(82.583 -11.216)">
        <path id="Path_350" data-name="Path 350"
          d="M0,0H2.64V1.136h.031A2.775,2.775,0,0,1,5.056-.239,2.4,2.4,0,0,1,7.472,1.105,3.04,3.04,0,0,1,10.064-.239c2.639,0,2.928,2,2.928,3.583V8.3h-2.72V3.425c0-.9-.431-1.424-1.136-1.424C7.968,2,7.855,2.9,7.855,4.239V8.3H5.137V3.584C5.137,2.609,4.848,2,4.113,2c-.977,0-1.393.56-1.393,2.255V8.3H0Z" />
      </g>
      <g id="Group_100" data-name="Group 100" transform="translate(99.726 -6.399)">
        <path id="Path_351" data-name="Path 351"
          d="M0,0A1.773,1.773,0,0,0,1.857,1.888,1.621,1.621,0,0,0,3.408.975H5.953c-.5,1.92-2.273,2.753-4.129,2.753A4.174,4.174,0,0,1-2.718-.688,4.357,4.357,0,0,1,1.76-5.056C4.737-5.056,6.225-2.815,6.1,0ZM3.376-1.52a1.682,1.682,0,0,0-1.616-1.7A1.794,1.794,0,0,0,0-1.52Z" />
      </g>
      <g id="Group_101" data-name="Group 101" transform="translate(107.187 -11.216)">
        <path id="Path_352" data-name="Path 352"
          d="M0,0H2.641V1.136h.032A3.137,3.137,0,0,1,5.281-.239c2.767,0,2.992,2.015,2.992,3.215V8.3H5.553V4.288C5.553,3.153,5.681,2,4.193,2,3.169,2,2.72,2.864,2.72,3.777V8.3H0Z" />
      </g>
      <g id="Group_102" data-name="Group 102" transform="translate(122.28 -9.456)">
        <path id="Path_353" data-name="Path 353"
          d="M0,0H-1.68V3.775c0,.657.384.8.975.8.225,0,.464-.032.7-.032v2c-.5.016-.993.081-1.488.081-2.32,0-2.912-.673-2.912-2.929V0H-5.776V-1.76H-4.4V-4.271h2.72V-1.76H0Z" />
      </g>
      <g id="Group_103" data-name="Group 103" transform="translate(123.387 -8.655)">
        <path id="Path_354" data-name="Path 354"
          d="M0,0A2.554,2.554,0,0,1,1.3-2.225,5.474,5.474,0,0,1,3.935-2.8c1.968,0,3.872.431,3.872,2.784V3.616a4.829,4.829,0,0,0,.32,2.127H5.392A3.315,3.315,0,0,1,5.23,4.96,3.747,3.747,0,0,1,2.495,5.984c-1.584,0-2.831-.8-2.831-2.512,0-2.7,2.943-2.5,4.832-2.88.462-.1.719-.256.719-.769,0-.623-.752-.863-1.312-.863A1.217,1.217,0,0,0,2.543,0ZM3.519,4.3c1.3,0,1.729-.737,1.665-2.449A7.684,7.684,0,0,1,3.5,2.3c-.608.144-1.119.4-1.119,1.055,0,.673.527.945,1.135.945" />
      </g>
    </g>
    <path id="Path_356" data-name="Path 356" d="M133.087-14.335h2.72V-2.912h-2.72Z" />
    <path id="Path_357" data-name="Path 357" d="M142.242-14.335h2.977V-2.912h-2.977Z" />
    <g id="Group_110" data-name="Group 110" clip-path="url(#clip-path)">
      <g id="Group_105" data-name="Group 105" transform="translate(147.171 -11.216)">
        <path id="Path_358" data-name="Path 358"
          d="M0,0H2.64V1.136h.031A2.774,2.774,0,0,1,5.055-.239,2.4,2.4,0,0,1,7.472,1.105,3.04,3.04,0,0,1,10.064-.239c2.639,0,2.928,2,2.928,3.583V8.3h-2.72V3.425C10.272,2.528,9.84,2,9.136,2,7.968,2,7.855,2.9,7.855,4.239V8.3H5.137V3.584C5.137,2.609,4.848,2,4.113,2c-.977,0-1.393.56-1.393,2.255V8.3H0Z" />
      </g>
      <g id="Group_106" data-name="Group 106" transform="translate(161.882 -8.655)">
        <path id="Path_359" data-name="Path 359"
          d="M0,0A2.554,2.554,0,0,1,1.3-2.225,5.474,5.474,0,0,1,3.935-2.8c1.968,0,3.872.431,3.872,2.784V3.616a4.829,4.829,0,0,0,.32,2.127H5.392a3.264,3.264,0,0,1-.161-.783A3.75,3.75,0,0,1,2.495,5.984c-1.583,0-2.831-.8-2.831-2.512,0-2.7,2.944-2.5,4.832-2.88.463-.1.719-.256.719-.769,0-.623-.752-.863-1.311-.863A1.218,1.218,0,0,0,2.543,0ZM3.519,4.3c1.3,0,1.729-.737,1.665-2.449A7.684,7.684,0,0,1,3.5,2.3c-.607.144-1.119.4-1.119,1.055,0,.673.527.945,1.135.945" />
      </g>
      <g id="Group_107" data-name="Group 107" transform="translate(179.518 -3.92)">
        <path id="Path_360" data-name="Path 360"
          d="M0,0C0,1.36-.256,3.921-4.144,3.921c-1.936,0-3.76-.433-4.079-2.656H-5.5a.888.888,0,0,0,.464.719,2.167,2.167,0,0,0,.993.177c1.3,0,1.424-.912,1.424-1.936V-.56h-.033A2.627,2.627,0,0,1-4.863.657c-2.512,0-3.649-1.792-3.649-4.129,0-2.207,1.3-4.063,3.649-4.063A2.4,2.4,0,0,1-2.64-6.254h.033V-7.3H0ZM-4.208-5.456c-1.2,0-1.584,1.057-1.584,2.081,0,.976.449,1.951,1.568,1.951,1.152,0,1.648-.9,1.648-1.935,0-1.056-.416-2.1-1.632-2.1" />
      </g>
      <g id="Group_108" data-name="Group 108" transform="translate(183.587 -6.399)">
        <path id="Path_361" data-name="Path 361"
          d="M0,0A1.773,1.773,0,0,0,1.857,1.888,1.621,1.621,0,0,0,3.408.975H5.953c-.5,1.92-2.273,2.753-4.129,2.753A4.176,4.176,0,0,1-2.72-.688,4.359,4.359,0,0,1,1.76-5.056C4.737-5.056,6.225-2.815,6.1,0ZM3.376-1.52a1.683,1.683,0,0,0-1.616-1.7A1.794,1.794,0,0,0,0-1.52Z" />
      </g>
      <g id="Group_109" data-name="Group 109" transform="translate(193.16 -5.648)">
        <path id="Path_362" data-name="Path 362"
          d="M0,0A1.118,1.118,0,0,0,.449.928a1.711,1.711,0,0,0,1.008.288c.527,0,1.279-.225,1.279-.88s-.847-.768-1.327-.88C-.3-.976-2.448-1.024-2.448-3.264c0-2,2.16-2.544,3.793-2.544,1.824,0,3.728.529,3.823,2.687H2.656A.779.779,0,0,0,2.3-3.839a1.607,1.607,0,0,0-.864-.208C.993-4.047.272-4,.272-3.424c0,.783,1.825.927,3.072,1.2A2.355,2.355,0,0,1,5.456.016c0,2.224-2.112,2.96-3.983,2.96C-.5,2.976-2.51,2.32-2.592,0Z" />
      </g>
    </g>
  </g>
</svg>