<svg xmlns="http://www.w3.org/2000/svg" width="184.934" height="73.669" viewBox="0 0 184.934 73.669">
  <g id="Logo" transform="translate(-599.787 -353.382)">
    <g id="Group_172" data-name="Group 172">
      <g id="Raggruppa_40" data-name="Raggruppa 40">
        <g id="Raggruppa_39" data-name="Raggruppa 39">
          <path id="Tracciato_215" data-name="Tracciato 215" d="M727.048,357.959a10,10,0,0,0-7.084,17.059l.014.014a10,10,0,0,0,14.155-14.125l-.014-.014a9.971,9.971,0,0,0-7.071-2.934m42.466,4.316a5.686,5.686,0,1,0,4.021,1.661,5.687,5.687,0,0,0-4.021-1.661m-51.266,17.64a9.276,9.276,0,0,0-9.277,9.274v0a9.288,9.288,0,1,0,18.577.006v-.006a9.279,9.279,0,0,0-9.28-9.278h-.015m60.055,2.865a6.412,6.412,0,1,0,6.413,6.413,6.411,6.411,0,0,0-6.413-6.413m-51.26,19.051a8.59,8.59,0,1,0,6.111,2.543l-.032-.031a8.565,8.565,0,0,0-6.079-2.512m42.462,1.463a7.131,7.131,0,1,0,7.131,7.131,7.131,7.131,0,0,0-7.131-7.131m-21.232,8.1a7.829,7.829,0,1,0,5.528,2.3,7.828,7.828,0,0,0-5.528-2.3m0-57.222a5.006,5.006,0,1,0,.009,0"/>
        </g>
      </g>
    </g>
    <g id="Raggruppa_41" data-name="Raggruppa 41">
      <path id="Tracciato_217" data-name="Tracciato 217" d="M605.126,353.684l-5.339,14.28h3.82l.894-2.558h4.988l.875,2.562h3.89l-5.345-14.284Zm1.862,3.96h.04l1.581,5h-3.241Z"/>
    </g>
    <g id="Raggruppa_42" data-name="Raggruppa 42">
      <path id="Tracciato_218" data-name="Tracciato 218" d="M625.52,353.684v8.8h-.04l-4.962-8.8H616.7v14.284h3.5v-8.907h.038l4.962,8.9h3.821V353.684Z"/>
    </g>
    <path id="Tracciato_219" data-name="Tracciato 219" d="M632.651,361.084h6.222v2.882h-6.222Z"/>
    <path id="Tracciato_220" data-name="Tracciato 220" d="M642.519,367.968h3.721V353.684h-3.721Z"/>
    <g id="Group_173" data-name="Group 173">
      <g id="Raggruppa_45" data-name="Raggruppa 45">
        <g id="Raggruppa_43" data-name="Raggruppa 43">
          <path id="Tracciato_221" data-name="Tracciato 221" d="M659.306,358.783a2.59,2.59,0,0,0-2.876-2.2c-2.4,0-3.321,2.126-3.321,4.24s.915,4.241,3.321,4.241a2.651,2.651,0,0,0,2.866-2.418c.006-.074.01-.148.01-.222h3.722c-.2,3.681-2.9,5.843-6.523,5.843a7.034,7.034,0,0,1-7.133-6.931q0-.257.012-.513a7.031,7.031,0,0,1,6.608-7.43c.171-.01.342-.013.513-.011,3.081,0,6.427,1.961,6.523,5.4Z"/>
        </g>
        <g id="Raggruppa_44" data-name="Raggruppa 44">
          <path id="Tracciato_222" data-name="Tracciato 222" d="M672.517,353.383c4.5,0,7.044,3.3,7.044,7.441s-2.542,7.439-7.044,7.439-7.041-3.3-7.041-7.444,2.54-7.436,7.041-7.436m0,11.684c2.4,0,3.321-2.126,3.321-4.243s-.92-4.239-3.321-4.239-3.321,2.12-3.321,4.239.922,4.243,3.321,4.243"/>
        </g>
      </g>
    </g>
    <g id="Raggruppa_46" data-name="Raggruppa 46">
      <path id="Tracciato_224" data-name="Tracciato 224" d="M691.372,353.684v8.8h-.041l-4.961-8.8h-3.82v14.284h3.5v-8.907h.039l4.96,8.9h3.823V353.684Z"/>
    </g>
  </g>
</svg>
