<svg width="172.345" height="54.773" viewBox="0 0 172.345 54.773">
  <g id="Raggruppa_38" data-name="Raggruppa 38" transform="translate(-57.127 -302.626)">
    <path id="Tracciato_215" data-name="Tracciato 215" d="M61.336,302.626h3.442l4.161,11.429H65.29l-.481-1.633H61.176l-.512,1.633H57.127Zm2.769,7.347-1.024-3.521h-.033l-1.1,3.521Z" fill="blue"/>
    <path id="Tracciato_216" data-name="Tracciato 216" d="M69.67,305.748h3.057V306.8h.031a3.048,3.048,0,0,1,2.706-1.265,2.675,2.675,0,0,1,2.849,2.818v5.7H75.144V309.7c0-.96-.112-1.632-1.041-1.632-.544,0-1.265.272-1.265,1.6v4.386H69.67Z" fill="blue"/>
    <path id="Tracciato_217" data-name="Tracciato 217" d="M80.245,308.469h5.01v2.625h-5.01Z" fill="blue"/>
    <path id="Tracciato_218" data-name="Tracciato 218" d="M87.237,302.626h3.521v11.429H87.237Z" fill="blue"/>
    <path id="Tracciato_219" data-name="Tracciato 219" d="M97.879,308.9a1.132,1.132,0,0,0-.352-.785,1.157,1.157,0,0,0-.8-.271c-1.217,0-1.392,1.056-1.392,2.064s.175,2.049,1.392,2.049a1.274,1.274,0,0,0,1.233-1.217h3.025a3.881,3.881,0,0,1-1.441,2.61,4.623,4.623,0,0,1-2.881.912,4.364,4.364,0,1,1,0-8.724c2.176,0,4.034,1.073,4.225,3.362Z" fill="blue"/>
    <path id="Tracciato_220" data-name="Tracciato 220" d="M106.471,314.263a4.365,4.365,0,1,1,4.531-4.37A4.156,4.156,0,0,1,106.471,314.263Zm0-6.418c-1.2,0-1.36,1.168-1.36,2.048s.16,2.065,1.36,2.065,1.361-1.184,1.361-2.065S107.671,307.845,106.471,307.845Z" fill="blue"/>
    <path id="Tracciato_221" data-name="Tracciato 221" d="M112.373,305.748h3.057V306.8h.031a3.048,3.048,0,0,1,2.707-1.265,2.675,2.675,0,0,1,2.848,2.818v5.7h-3.169V309.7c0-.96-.112-1.632-1.041-1.632-.544,0-1.264.272-1.264,1.6v4.386h-3.169Z" fill="blue"/>
    <path id="Tracciato_222" data-name="Tracciato 222" d="M122.709,308.223a3.86,3.86,0,0,1,.767-1.376,3.626,3.626,0,0,1,1.265-.92,4.632,4.632,0,0,1,3.464,0,3.634,3.634,0,0,1,1.255.92,3.862,3.862,0,0,1,.768,1.376,5.5,5.5,0,0,1,.257,1.7,5.425,5.425,0,0,1-.257,1.7,3.861,3.861,0,0,1-.768,1.368,3.539,3.539,0,0,1-1.255.912,4.737,4.737,0,0,1-3.464,0,3.533,3.533,0,0,1-1.265-.912,3.858,3.858,0,0,1-.767-1.368,5.425,5.425,0,0,1-.256-1.7A5.5,5.5,0,0,1,122.709,308.223Zm1.383,3.04a2.807,2.807,0,0,0,.552.976,2.413,2.413,0,0,0,.824.6,2.508,2.508,0,0,0,2,0,2.408,2.408,0,0,0,.825-.6,2.806,2.806,0,0,0,.551-.976,4.562,4.562,0,0,0,0-2.672,2.91,2.91,0,0,0-.551-.984,2.354,2.354,0,0,0-.825-.608,2.508,2.508,0,0,0-2,0,2.36,2.36,0,0,0-.824.608,2.912,2.912,0,0,0-.552.984,4.562,4.562,0,0,0,0,2.672Z" fill="blue"/>
    <path id="Tracciato_223" data-name="Tracciato 223" d="M133.524,302.631v11.424h-1.36V302.631Z" fill="blue"/>
    <path id="Tracciato_224" data-name="Tracciato 224" d="M135.444,308.223a3.89,3.89,0,0,1,.767-1.376,3.626,3.626,0,0,1,1.265-.92,4.632,4.632,0,0,1,3.464,0,3.647,3.647,0,0,1,1.256.92,3.86,3.86,0,0,1,.767,1.376,5.5,5.5,0,0,1,.257,1.7,5.425,5.425,0,0,1-.257,1.7,3.858,3.858,0,0,1-.767,1.368,3.552,3.552,0,0,1-1.256.912,4.737,4.737,0,0,1-3.464,0,3.533,3.533,0,0,1-1.265-.912,3.889,3.889,0,0,1-.767-1.368,5.425,5.425,0,0,1-.256-1.7A5.5,5.5,0,0,1,135.444,308.223Zm1.384,3.04a2.79,2.79,0,0,0,.551.976,2.417,2.417,0,0,0,.825.6,2.508,2.508,0,0,0,2,0,2.413,2.413,0,0,0,.824-.6,2.807,2.807,0,0,0,.552-.976,4.562,4.562,0,0,0,0-2.672,2.912,2.912,0,0,0-.552-.984A2.36,2.36,0,0,0,140.2,307a2.508,2.508,0,0,0-2,0,2.364,2.364,0,0,0-.825.608,2.893,2.893,0,0,0-.551.984,4.54,4.54,0,0,0,0,2.672Z" fill="blue"/>
    <path id="Tracciato_225" data-name="Tracciato 225" d="M150.8,316.391a3.778,3.778,0,0,1-2.911,1.008,5.66,5.66,0,0,1-1.177-.128,3.638,3.638,0,0,1-1.088-.416,2.535,2.535,0,0,1-.807-.752,2.14,2.14,0,0,1-.353-1.136h1.361a1,1,0,0,0,.232.624,1.688,1.688,0,0,0,.527.416,2.545,2.545,0,0,0,.681.232,3.667,3.667,0,0,0,.7.072,2.522,2.522,0,0,0,1.136-.232,2.141,2.141,0,0,0,.768-.64,2.641,2.641,0,0,0,.44-.984,5.534,5.534,0,0,0,.136-1.264v-.544h-.033a2.28,2.28,0,0,1-1.063,1.128,3.308,3.308,0,0,1-1.513.36,3.639,3.639,0,0,1-1.615-.336,3.371,3.371,0,0,1-1.152-.9,3.864,3.864,0,0,1-.7-1.328,5.5,5.5,0,0,1-.231-1.608,6.29,6.29,0,0,1,.191-1.512,4.11,4.11,0,0,1,.641-1.408,3.5,3.5,0,0,1,1.184-1.04,3.681,3.681,0,0,1,1.808-.408,3.058,3.058,0,0,1,1.44.344,2.428,2.428,0,0,1,1.024,1.032h.016v-1.184h1.28v7.568A4.356,4.356,0,0,1,150.8,316.391Zm-1.735-3.72a2.24,2.24,0,0,0,.76-.736,3.372,3.372,0,0,0,.424-1.032,5.035,5.035,0,0,0,.136-1.152,4.5,4.5,0,0,0-.129-1.072,2.978,2.978,0,0,0-.407-.952,2.138,2.138,0,0,0-.728-.68,2.16,2.16,0,0,0-1.088-.256,2.349,2.349,0,0,0-1.12.248,2.169,2.169,0,0,0-.76.664,2.812,2.812,0,0,0-.432.96,4.657,4.657,0,0,0-.137,1.136,5.744,5.744,0,0,0,.113,1.12,3.158,3.158,0,0,0,.384,1.016,2.149,2.149,0,0,0,.72.736,2.071,2.071,0,0,0,1.119.28A2.2,2.2,0,0,0,149.068,312.671Z" fill="blue"/>
    <path id="Tracciato_226" data-name="Tracciato 226" d="M157.027,315.159a8.44,8.44,0,0,1-.472,1.024,2.781,2.781,0,0,1-.512.68,1.727,1.727,0,0,1-.624.384,2.4,2.4,0,0,1-.792.12,3.686,3.686,0,0,1-.48-.032,2.361,2.361,0,0,1-.464-.112v-1.248a2.291,2.291,0,0,0,.408.136,1.746,1.746,0,0,0,.392.056,1.169,1.169,0,0,0,.7-.2,1.227,1.227,0,0,0,.424-.568l.561-1.392-3.281-8.224h1.536l2.416,6.768h.033l2.319-6.768h1.44Z" fill="blue"/>
    <path id="Tracciato_227" data-name="Tracciato 227" d="M161.843,307.559v-1.776h1.776v1.776Zm1.776,4.72v1.776h-1.776v-1.776Z" fill="blue"/>
    <path id="Tracciato_228" data-name="Tracciato 228" d="M171.218,302.631v4.912h6.017v-4.912h1.519v11.424h-1.519v-5.232h-6.017v5.232H169.7V302.631Z" fill="blue"/>
    <path id="Tracciato_229" data-name="Tracciato 229" d="M181.106,304.3v-1.664h1.36V304.3Zm1.36,1.488v8.272h-1.36v-8.272Z" fill="blue"/>
    <path id="Tracciato_230" data-name="Tracciato 230" d="M185.938,312.207a1.45,1.45,0,0,0,.5.5,2.273,2.273,0,0,0,.7.264,4.067,4.067,0,0,0,.809.08,4.985,4.985,0,0,0,.672-.048,2.49,2.49,0,0,0,.648-.176,1.207,1.207,0,0,0,.487-.376,1,1,0,0,0,.193-.632.906.906,0,0,0-.4-.8,3.393,3.393,0,0,0-1-.44c-.4-.112-.835-.213-1.3-.3a6.707,6.707,0,0,1-1.3-.384,2.679,2.679,0,0,1-1-.7,1.809,1.809,0,0,1-.4-1.248,1.98,1.98,0,0,1,.281-1.072,2.293,2.293,0,0,1,.719-.728,3.3,3.3,0,0,1,.993-.416,4.6,4.6,0,0,1,1.1-.136,6.523,6.523,0,0,1,1.3.12,2.982,2.982,0,0,1,1.048.416,2.15,2.15,0,0,1,.729.8,3.06,3.06,0,0,1,.32,1.256h-1.36a1.386,1.386,0,0,0-.208-.664,1.368,1.368,0,0,0-.449-.424,2.052,2.052,0,0,0-.6-.232,3.1,3.1,0,0,0-.664-.072,4.059,4.059,0,0,0-.617.048,2.079,2.079,0,0,0-.568.168,1.144,1.144,0,0,0-.415.32.805.805,0,0,0-.16.52.762.762,0,0,0,.248.584,1.965,1.965,0,0,0,.632.384,5.54,5.54,0,0,0,.864.256c.319.069.64.142.96.216a10.294,10.294,0,0,1,1,.272,3.274,3.274,0,0,1,.863.424,2.093,2.093,0,0,1,.609.664,1.957,1.957,0,0,1,.231.992,2.306,2.306,0,0,1-.311,1.248,2.433,2.433,0,0,1-.817.8,3.406,3.406,0,0,1-1.136.424,6.706,6.706,0,0,1-1.255.12,5.825,5.825,0,0,1-1.313-.144,3.215,3.215,0,0,1-1.1-.472,2.386,2.386,0,0,1-.768-.864,2.987,2.987,0,0,1-.32-1.3h1.36A1.513,1.513,0,0,0,185.938,312.207Z" fill="blue"/>
    <path id="Tracciato_231" data-name="Tracciato 231" d="M196.433,305.783v1.2h-1.647v5.136a1.427,1.427,0,0,0,.04.384.393.393,0,0,0,.151.224.667.667,0,0,0,.313.1,4.506,4.506,0,0,0,.519.024h.624v1.2h-1.04a4.874,4.874,0,0,1-.9-.072,1.332,1.332,0,0,1-.609-.264,1.125,1.125,0,0,1-.343-.544,3.092,3.092,0,0,1-.113-.928v-5.264h-1.408v-1.2h1.408V303.3h1.361v2.48Z" fill="blue"/>
    <path id="Tracciato_232" data-name="Tracciato 232" d="M197.746,308.223a3.875,3.875,0,0,1,.767-1.376,3.626,3.626,0,0,1,1.265-.92,4.632,4.632,0,0,1,3.464,0,3.647,3.647,0,0,1,1.256.92,3.875,3.875,0,0,1,.767,1.376,5.5,5.5,0,0,1,.257,1.7,5.425,5.425,0,0,1-.257,1.7,3.874,3.874,0,0,1-.767,1.368,3.552,3.552,0,0,1-1.256.912,4.737,4.737,0,0,1-3.464,0,3.533,3.533,0,0,1-1.265-.912,3.874,3.874,0,0,1-.767-1.368,5.425,5.425,0,0,1-.256-1.7A5.5,5.5,0,0,1,197.746,308.223Zm1.383,3.04a2.807,2.807,0,0,0,.552.976,2.423,2.423,0,0,0,.824.6,2.508,2.508,0,0,0,2,0,2.407,2.407,0,0,0,.825-.6,2.79,2.79,0,0,0,.551-.976,4.54,4.54,0,0,0,0-2.672,2.893,2.893,0,0,0-.551-.984,2.354,2.354,0,0,0-.825-.608,2.508,2.508,0,0,0-2,0,2.369,2.369,0,0,0-.824.608,2.912,2.912,0,0,0-.552.984,4.562,4.562,0,0,0,0,2.672Z" fill="blue"/>
    <path id="Tracciato_233" data-name="Tracciato 233" d="M208.353,305.783v1.744h.032a3.687,3.687,0,0,1,1.216-1.488,3.061,3.061,0,0,1,1.824-.448v1.44a3.857,3.857,0,0,0-1.392.224,2.2,2.2,0,0,0-.928.656,2.733,2.733,0,0,0-.512,1.048,5.69,5.69,0,0,0-.16,1.416v3.68h-1.36v-8.272Z" fill="blue"/>
    <path id="Tracciato_234" data-name="Tracciato 234" d="M216.016,315.159a8.445,8.445,0,0,1-.472,1.024,2.8,2.8,0,0,1-.511.68,1.744,1.744,0,0,1-.624.384,2.4,2.4,0,0,1-.792.12,3.7,3.7,0,0,1-.481-.032,2.361,2.361,0,0,1-.464-.112v-1.248a2.3,2.3,0,0,0,.409.136,1.731,1.731,0,0,0,.391.056,1.166,1.166,0,0,0,.7-.2,1.22,1.22,0,0,0,.424-.568l.561-1.392-3.28-8.224h1.536l2.416,6.768h.032l2.319-6.768h1.441Z" fill="blue"/>
    <path id="Tracciato_235" data-name="Tracciato 235" d="M221.569,312.279v1.616a2.869,2.869,0,0,1-.416,1.568,2.268,2.268,0,0,1-1.344.928v-.8a1.2,1.2,0,0,0,.456-.28,1.6,1.6,0,0,0,.3-.4,1.515,1.515,0,0,0,.152-.44,1.627,1.627,0,0,0,.025-.416h-.945v-1.776Z" fill="blue"/>
    <path id="Tracciato_236" data-name="Tracciato 236" d="M57.287,323.911v-1.28h9.135v1.28H62.615v10.144H61.094V323.911Z" fill="blue"/>
    <path id="Tracciato_237" data-name="Tracciato 237" d="M68.822,322.631V327h.032a1.8,1.8,0,0,1,.448-.648,2.545,2.545,0,0,1,.648-.432,3.351,3.351,0,0,1,.752-.248,3.806,3.806,0,0,1,.759-.08,3.594,3.594,0,0,1,1.36.224,2.254,2.254,0,0,1,.88.624,2.312,2.312,0,0,1,.472.952,5.153,5.153,0,0,1,.136,1.224v5.44h-1.36v-5.6a1.646,1.646,0,0,0-.448-1.216,1.666,1.666,0,0,0-1.232-.448,2.77,2.77,0,0,0-1.079.192,2.016,2.016,0,0,0-.76.544,2.349,2.349,0,0,0-.456.824,3.364,3.364,0,0,0-.152,1.032v4.672h-1.36V322.631Z" fill="blue"/>
    <path id="Tracciato_238" data-name="Tracciato 238" d="M82.133,333.527a3.757,3.757,0,0,1-2.336.7,4.25,4.25,0,0,1-1.719-.32,3.388,3.388,0,0,1-1.225-.9,3.8,3.8,0,0,1-.743-1.376,6.583,6.583,0,0,1-.28-1.744,4.957,4.957,0,0,1,.288-1.728,4.119,4.119,0,0,1,.807-1.36,3.665,3.665,0,0,1,1.233-.9,3.761,3.761,0,0,1,1.559-.32,3.391,3.391,0,0,1,1.832.456,3.617,3.617,0,0,1,1.168,1.16,4.618,4.618,0,0,1,.609,1.536,6.6,6.6,0,0,1,.135,1.584H77.269a3.275,3.275,0,0,0,.128,1.032,2.35,2.35,0,0,0,.465.864,2.271,2.271,0,0,0,.815.6,2.824,2.824,0,0,0,1.168.224,2.352,2.352,0,0,0,1.416-.4,1.936,1.936,0,0,0,.729-1.216h1.344A3.307,3.307,0,0,1,82.133,333.527Zm-.328-5.312a2.336,2.336,0,0,0-.5-.744,2.363,2.363,0,0,0-.735-.5,2.324,2.324,0,0,0-.937-.184,2.367,2.367,0,0,0-.952.184,2.2,2.2,0,0,0-.727.5,2.4,2.4,0,0,0-.481.744,2.862,2.862,0,0,0-.208.9h4.752A2.766,2.766,0,0,0,81.805,328.215Z" fill="blue"/>
    <path id="Tracciato_239" data-name="Tracciato 239" d="M84.677,328.223a3.877,3.877,0,0,1,.768-1.376,3.626,3.626,0,0,1,1.265-.92,4.629,4.629,0,0,1,3.463,0,3.647,3.647,0,0,1,1.256.92,3.862,3.862,0,0,1,.768,1.376,5.5,5.5,0,0,1,.257,1.7,5.425,5.425,0,0,1-.257,1.7,3.86,3.86,0,0,1-.768,1.368,3.552,3.552,0,0,1-1.256.912,4.735,4.735,0,0,1-3.463,0,3.533,3.533,0,0,1-1.265-.912,3.876,3.876,0,0,1-.768-1.368,5.425,5.425,0,0,1-.256-1.7A5.5,5.5,0,0,1,84.677,328.223Zm1.384,3.04a2.792,2.792,0,0,0,.552.976,2.413,2.413,0,0,0,.824.6,2.508,2.508,0,0,0,2,0,2.394,2.394,0,0,0,.824-.6,2.792,2.792,0,0,0,.552-.976,4.562,4.562,0,0,0,0-2.672,2.9,2.9,0,0,0-.552-.984,2.342,2.342,0,0,0-.824-.608,2.508,2.508,0,0,0-2,0,2.36,2.36,0,0,0-.824.608,2.9,2.9,0,0,0-.552.984,4.562,4.562,0,0,0,0,2.672Z" fill="blue"/>
    <path id="Tracciato_240" data-name="Tracciato 240" d="M94.964,325.783v1.744H95a3.685,3.685,0,0,1,1.215-1.488,3.062,3.062,0,0,1,1.825-.448v1.44a3.863,3.863,0,0,0-1.393.224,2.2,2.2,0,0,0-.928.656,2.717,2.717,0,0,0-.511,1.048,5.641,5.641,0,0,0-.161,1.416v3.68h-1.36v-8.272Z" fill="blue"/>
    <path id="Tracciato_241" data-name="Tracciato 241" d="M102.627,335.159a8.608,8.608,0,0,1-.471,1.024,2.781,2.781,0,0,1-.512.68,1.727,1.727,0,0,1-.624.384,2.4,2.4,0,0,1-.792.12,3.686,3.686,0,0,1-.48-.032,2.327,2.327,0,0,1-.464-.112v-1.248a2.291,2.291,0,0,0,.408.136,1.731,1.731,0,0,0,.392.056,1.171,1.171,0,0,0,.7-.2,1.233,1.233,0,0,0,.424-.568l.56-1.392-3.28-8.224h1.536l2.416,6.768h.032l2.32-6.768h1.44Z" fill="blue"/>
    <path id="Tracciato_242" data-name="Tracciato 242" d="M108.18,332.279v1.616a2.86,2.86,0,0,1-.416,1.568,2.265,2.265,0,0,1-1.344.928v-.8a1.214,1.214,0,0,0,.457-.28,1.6,1.6,0,0,0,.295-.4,1.518,1.518,0,0,0,.153-.44,1.67,1.67,0,0,0,.024-.416H106.4v-1.776Z" fill="blue"/>
    <path id="Tracciato_243" data-name="Tracciato 243" d="M122.644,334.02a1.893,1.893,0,0,1-.976.211,1.171,1.171,0,0,1-.839-.3,1.286,1.286,0,0,1-.313-.968,3.242,3.242,0,0,1-1.3.968,4.5,4.5,0,0,1-2.671.168,2.467,2.467,0,0,1-.873-.4,1.911,1.911,0,0,1-.583-.712,2.4,2.4,0,0,1-.216-1.064,2.432,2.432,0,0,1,.24-1.152,2.077,2.077,0,0,1,.632-.728,2.9,2.9,0,0,1,.9-.424c.336-.1.681-.176,1.032-.24.374-.075.728-.131,1.065-.168a5.926,5.926,0,0,0,.888-.16,1.461,1.461,0,0,0,.607-.3.743.743,0,0,0,.225-.584,1.368,1.368,0,0,0-.168-.72,1.157,1.157,0,0,0-.433-.416,1.754,1.754,0,0,0-.592-.192,4.456,4.456,0,0,0-.647-.048,2.887,2.887,0,0,0-1.441.328,1.4,1.4,0,0,0-.624,1.24h-1.36a2.96,2.96,0,0,1,.32-1.3,2.441,2.441,0,0,1,.769-.856,3.216,3.216,0,0,1,1.1-.472,5.781,5.781,0,0,1,1.32-.144,7.784,7.784,0,0,1,1.111.08,2.908,2.908,0,0,1,1,.327,1.912,1.912,0,0,1,.72.7,2.21,2.21,0,0,1,.272,1.165v4.247a3.181,3.181,0,0,0,.056.7c.038.149.163.224.376.224a1.324,1.324,0,0,0,.416-.08Zm-2.208-4.253a1.675,1.675,0,0,1-.672.28c-.277.059-.567.107-.872.144s-.61.08-.92.128a3.413,3.413,0,0,0-.832.232,1.505,1.505,0,0,0-.6.456,1.269,1.269,0,0,0-.233.808,1.1,1.1,0,0,0,.137.568,1.131,1.131,0,0,0,.351.376,1.481,1.481,0,0,0,.5.208,2.787,2.787,0,0,0,.609.064,3.208,3.208,0,0,0,1.151-.184,2.416,2.416,0,0,0,.784-.464,1.82,1.82,0,0,0,.449-.608,1.553,1.553,0,0,0,.143-.616Z" fill="blue"/>
    <path id="Tracciato_244" data-name="Tracciato 244" d="M125.188,325.783V327.1h.032a2.866,2.866,0,0,1,2.689-1.5,3.588,3.588,0,0,1,1.359.224,2.254,2.254,0,0,1,.88.624,2.314,2.314,0,0,1,.473.952,5.207,5.207,0,0,1,.135,1.224v5.44H129.4v-5.6a1.642,1.642,0,0,0-.448-1.216,1.666,1.666,0,0,0-1.232-.448,2.772,2.772,0,0,0-1.08.192,2.02,2.02,0,0,0-.759.544,2.335,2.335,0,0,0-.457.824,3.364,3.364,0,0,0-.152,1.032v4.672h-1.359v-8.272Z" fill="blue"/>
    <path id="Tracciato_245" data-name="Tracciato 245" d="M138.835,334.055v-1.12H138.8a2,2,0,0,1-1.056.992,4.026,4.026,0,0,1-1.584.3,3.724,3.724,0,0,1-1.672-.352,3.441,3.441,0,0,1-1.184-.944,4.089,4.089,0,0,1-.712-1.376,5.655,5.655,0,0,1-.24-1.664,5.859,5.859,0,0,1,.231-1.664,3.93,3.93,0,0,1,.705-1.368,3.4,3.4,0,0,1,1.184-.928,3.767,3.767,0,0,1,1.655-.344,4.1,4.1,0,0,1,.689.064,3.55,3.55,0,0,1,.736.216,3.15,3.15,0,0,1,.7.4,2.211,2.211,0,0,1,.552.616h.031v-4.256H140.2v11.424Zm-4.887-2.936a3.037,3.037,0,0,0,.464.984,2.277,2.277,0,0,0,.8.688,2.429,2.429,0,0,0,1.145.256,2.245,2.245,0,0,0,1.952-.984,3,3,0,0,0,.44-1,4.878,4.878,0,0,0-.008-2.312,2.907,2.907,0,0,0-.456-1,2.335,2.335,0,0,0-.808-.7,2.526,2.526,0,0,0-1.2-.264,2.338,2.338,0,0,0-1.168.272,2.18,2.18,0,0,0-.769.72,3.172,3.172,0,0,0-.416,1.024,5.464,5.464,0,0,0-.128,1.184A4.2,4.2,0,0,0,133.948,331.119Z" fill="blue"/>
    <path id="Tracciato_246" data-name="Tracciato 246" d="M151.651,322.631a3.547,3.547,0,0,1,2.616.888,3.941,3.941,0,0,1,0,4.984,3.48,3.48,0,0,1-2.616.88h-3.488v4.672h-1.52V322.631Zm-.512,5.472a2.711,2.711,0,0,0,1.9-.528,2.007,2.007,0,0,0,.6-1.568,1.982,1.982,0,0,0-.6-1.56,2.8,2.8,0,0,0-1.9-.536h-2.976V328.1Z" fill="blue"/>
    <path id="Tracciato_247" data-name="Tracciato 247" d="M158.019,325.783v1.744h.032a3.687,3.687,0,0,1,1.216-1.488,3.061,3.061,0,0,1,1.824-.448v1.44a3.857,3.857,0,0,0-1.392.224,2.2,2.2,0,0,0-.928.656,2.733,2.733,0,0,0-.512,1.048,5.69,5.69,0,0,0-.16,1.416v3.68h-1.36v-8.272Z" fill="blue"/>
    <path id="Tracciato_248" data-name="Tracciato 248" d="M169.442,334.02a1.894,1.894,0,0,1-.975.211,1.173,1.173,0,0,1-.84-.3,1.286,1.286,0,0,1-.312-.968,3.248,3.248,0,0,1-1.3.968,4.5,4.5,0,0,1-2.672.168,2.454,2.454,0,0,1-.872-.4,1.923,1.923,0,0,1-.584-.712,2.814,2.814,0,0,1,.025-2.216,2.077,2.077,0,0,1,.632-.728,2.891,2.891,0,0,1,.9-.424c.336-.1.681-.176,1.032-.24q.56-.112,1.065-.168a5.888,5.888,0,0,0,.887-.16,1.472,1.472,0,0,0,.608-.3.743.743,0,0,0,.225-.584,1.368,1.368,0,0,0-.168-.72,1.157,1.157,0,0,0-.433-.416,1.754,1.754,0,0,0-.592-.192,4.467,4.467,0,0,0-.647-.048,2.885,2.885,0,0,0-1.441.328,1.393,1.393,0,0,0-.624,1.24h-1.36a2.947,2.947,0,0,1,.32-1.3,2.432,2.432,0,0,1,.769-.856,3.219,3.219,0,0,1,1.1-.472,5.8,5.8,0,0,1,1.321-.144,7.784,7.784,0,0,1,1.111.08,2.908,2.908,0,0,1,1,.327,1.912,1.912,0,0,1,.72.7,2.22,2.22,0,0,1,.271,1.165v4.247a3.182,3.182,0,0,0,.056.7c.038.149.163.224.376.224a1.324,1.324,0,0,0,.416-.08Zm-2.207-4.253a1.681,1.681,0,0,1-.672.28c-.277.059-.567.107-.872.144s-.61.08-.92.128a3.4,3.4,0,0,0-.832.232,1.515,1.515,0,0,0-.6.456,1.275,1.275,0,0,0-.232.808,1.1,1.1,0,0,0,.137.568,1.131,1.131,0,0,0,.351.376,1.481,1.481,0,0,0,.5.208,2.788,2.788,0,0,0,.609.064,3.208,3.208,0,0,0,1.151-.184,2.416,2.416,0,0,0,.784-.464,1.8,1.8,0,0,0,.448-.608,1.539,1.539,0,0,0,.144-.616Z" fill="blue"/>
    <path id="Tracciato_249" data-name="Tracciato 249" d="M175.65,327.223a2.066,2.066,0,0,0-1.376-.432,2.536,2.536,0,0,0-1.231.272,2.186,2.186,0,0,0-.792.72,3.016,3.016,0,0,0-.425,1.032,5.645,5.645,0,0,0-.128,1.208,4.58,4.58,0,0,0,.137,1.12,2.964,2.964,0,0,0,.423.968,2.151,2.151,0,0,0,.752.68,2.249,2.249,0,0,0,1.1.256,2.226,2.226,0,0,0,1.576-.528,2.386,2.386,0,0,0,.7-1.488h1.392a3.808,3.808,0,0,1-1.144,2.368,3.592,3.592,0,0,1-2.5.832,4.294,4.294,0,0,1-1.671-.3,3.238,3.238,0,0,1-1.217-.864,3.737,3.737,0,0,1-.736-1.336,5.55,5.55,0,0,1-.248-1.7,6.035,6.035,0,0,1,.241-1.736,4,4,0,0,1,.727-1.408,3.416,3.416,0,0,1,1.224-.944,4.009,4.009,0,0,1,1.712-.344,5,5,0,0,1,1.32.168,3.218,3.218,0,0,1,1.088.52,2.859,2.859,0,0,1,.776.888,3.3,3.3,0,0,1,.384,1.272h-1.408A2.07,2.07,0,0,0,175.65,327.223Z" fill="blue"/>
    <path id="Tracciato_250" data-name="Tracciato 250" d="M182.834,325.783v1.2h-1.648v5.136a1.47,1.47,0,0,0,.04.384.393.393,0,0,0,.151.224.671.671,0,0,0,.313.1,4.537,4.537,0,0,0,.52.024h.624v1.2h-1.041a4.874,4.874,0,0,1-.9-.072,1.323,1.323,0,0,1-.608-.264,1.119,1.119,0,0,1-.344-.544,3.129,3.129,0,0,1-.112-.928v-5.264h-1.408v-1.2h1.408V323.3h1.36v2.48Z" fill="blue"/>
    <path id="Tracciato_251" data-name="Tracciato 251" d="M184.417,324.3v-1.664h1.36V324.3Zm1.36,1.488v8.272h-1.36v-8.272Z" fill="blue"/>
    <path id="Tracciato_252" data-name="Tracciato 252" d="M192.833,327.223a2.066,2.066,0,0,0-1.376-.432,2.537,2.537,0,0,0-1.232.272,2.194,2.194,0,0,0-.792.72,3.036,3.036,0,0,0-.425,1.032,5.646,5.646,0,0,0-.128,1.208,4.58,4.58,0,0,0,.137,1.12,2.987,2.987,0,0,0,.424.968,2.134,2.134,0,0,0,.752.68,2.572,2.572,0,0,0,2.68-.272,2.386,2.386,0,0,0,.7-1.488h1.391a3.807,3.807,0,0,1-1.143,2.368,3.592,3.592,0,0,1-2.5.832,4.3,4.3,0,0,1-1.672-.3,3.253,3.253,0,0,1-1.217-.864,3.735,3.735,0,0,1-.735-1.336,5.55,5.55,0,0,1-.248-1.7,6.07,6.07,0,0,1,.24-1.736,4,4,0,0,1,.728-1.408,3.412,3.412,0,0,1,1.223-.944,4.015,4.015,0,0,1,1.712-.344,5.005,5.005,0,0,1,1.321.168,3.2,3.2,0,0,1,1.087.52,2.85,2.85,0,0,1,.777.888,3.3,3.3,0,0,1,.384,1.272H193.5A2.069,2.069,0,0,0,192.833,327.223Z" fill="blue"/>
    <path id="Tracciato_253" data-name="Tracciato 253" d="M202.336,333.527a3.756,3.756,0,0,1-2.335.7,4.252,4.252,0,0,1-1.72-.32,3.388,3.388,0,0,1-1.225-.9,3.8,3.8,0,0,1-.743-1.376,6.583,6.583,0,0,1-.28-1.744,4.957,4.957,0,0,1,.288-1.728,4.118,4.118,0,0,1,.807-1.36,3.665,3.665,0,0,1,1.233-.9,3.761,3.761,0,0,1,1.559-.32,3.391,3.391,0,0,1,1.832.456,3.616,3.616,0,0,1,1.168,1.16,4.6,4.6,0,0,1,.609,1.536,6.652,6.652,0,0,1,.136,1.584h-6.193a3.275,3.275,0,0,0,.128,1.032,2.35,2.35,0,0,0,.465.864,2.271,2.271,0,0,0,.815.6,2.824,2.824,0,0,0,1.168.224,2.35,2.35,0,0,0,1.416-.4,1.932,1.932,0,0,0,.729-1.216h1.344A3.307,3.307,0,0,1,202.336,333.527Zm-.328-5.312a2.336,2.336,0,0,0-.5-.744,2.363,2.363,0,0,0-.735-.5,2.324,2.324,0,0,0-.937-.184,2.367,2.367,0,0,0-.952.184,2.2,2.2,0,0,0-.727.5,2.418,2.418,0,0,0-.481.744,2.862,2.862,0,0,0-.208.9h4.752A2.766,2.766,0,0,0,202.008,328.215Z" fill="blue"/>
    <path id="Tracciato_254" data-name="Tracciato 254" d="M206.113,332.207a1.45,1.45,0,0,0,.5.5,2.273,2.273,0,0,0,.7.264,4.064,4.064,0,0,0,.808.08A4.974,4.974,0,0,0,208.8,333a2.487,2.487,0,0,0,.649-.176,1.207,1.207,0,0,0,.487-.376,1,1,0,0,0,.192-.632.905.905,0,0,0-.4-.8,3.416,3.416,0,0,0-1-.44c-.4-.112-.835-.213-1.3-.3a6.718,6.718,0,0,1-1.3-.384,2.679,2.679,0,0,1-1-.7,1.809,1.809,0,0,1-.4-1.248,1.98,1.98,0,0,1,.281-1.072,2.293,2.293,0,0,1,.719-.728,3.3,3.3,0,0,1,.992-.416,4.612,4.612,0,0,1,1.1-.136,6.523,6.523,0,0,1,1.3.12,2.982,2.982,0,0,1,1.048.416,2.139,2.139,0,0,1,.728.8,3.06,3.06,0,0,1,.321,1.256H209.84a1.3,1.3,0,0,0-.656-1.088,2.063,2.063,0,0,0-.6-.232,3.1,3.1,0,0,0-.665-.072,4.046,4.046,0,0,0-.616.048,2.079,2.079,0,0,0-.568.168,1.144,1.144,0,0,0-.415.32.8.8,0,0,0-.16.52.762.762,0,0,0,.248.584,1.965,1.965,0,0,0,.632.384,5.508,5.508,0,0,0,.864.256c.319.069.639.142.96.216a10.3,10.3,0,0,1,1,.272,3.274,3.274,0,0,1,.863.424,2.078,2.078,0,0,1,.608.664,1.947,1.947,0,0,1,.232.992,2.306,2.306,0,0,1-.312,1.248,2.43,2.43,0,0,1-.816.8,3.406,3.406,0,0,1-1.136.424,6.724,6.724,0,0,1-1.256.12,5.817,5.817,0,0,1-1.312-.144,3.229,3.229,0,0,1-1.1-.472,2.392,2.392,0,0,1-.767-.864,2.987,2.987,0,0,1-.321-1.3H205.9A1.513,1.513,0,0,0,206.113,332.207Z" fill="blue"/>
    <path id="Tracciato_255" data-name="Tracciato 255" d="M216.369,328.223a3.875,3.875,0,0,1,.767-1.376,3.626,3.626,0,0,1,1.265-.92,4.632,4.632,0,0,1,3.464,0,3.647,3.647,0,0,1,1.256.92,3.875,3.875,0,0,1,.767,1.376,5.5,5.5,0,0,1,.257,1.7,5.425,5.425,0,0,1-.257,1.7,3.874,3.874,0,0,1-.767,1.368,3.552,3.552,0,0,1-1.256.912,4.737,4.737,0,0,1-3.464,0,3.533,3.533,0,0,1-1.265-.912,3.874,3.874,0,0,1-.767-1.368,5.425,5.425,0,0,1-.256-1.7A5.5,5.5,0,0,1,216.369,328.223Zm1.383,3.04a2.807,2.807,0,0,0,.552.976,2.423,2.423,0,0,0,.824.6,2.508,2.508,0,0,0,2,0,2.408,2.408,0,0,0,.825-.6,2.79,2.79,0,0,0,.551-.976,4.54,4.54,0,0,0,0-2.672,2.893,2.893,0,0,0-.551-.984,2.354,2.354,0,0,0-.825-.608,2.508,2.508,0,0,0-2,0,2.369,2.369,0,0,0-.824.608,2.912,2.912,0,0,0-.552.984,4.562,4.562,0,0,0,0,2.672Z" fill="blue"/>
    <path id="Tracciato_256" data-name="Tracciato 256" d="M224.913,326.983v-1.2H226.3v-1.232a1.941,1.941,0,0,1,.584-1.528,2.49,2.49,0,0,1,1.7-.52,3.542,3.542,0,0,1,.44.032,2.359,2.359,0,0,1,.44.1v1.184a1.662,1.662,0,0,0-.384-.088,3.348,3.348,0,0,0-.383-.024,1.322,1.322,0,0,0-.769.192.845.845,0,0,0-.271.736v1.152h1.6v1.2h-1.6v7.072H226.3v-7.072Z" fill="blue"/>
    <path id="Tracciato_257" data-name="Tracciato 257" d="M66.39,342.631v1.28H60.022v3.632h5.937v1.28H60.022v3.952h6.416v1.28H58.5V342.631Z" fill="blue"/>
    <path id="Tracciato_258" data-name="Tracciato 258" d="M69.334,345.783V347.1h.032a2.863,2.863,0,0,1,2.687-1.5,3.6,3.6,0,0,1,1.36.224,2.254,2.254,0,0,1,.88.624,2.324,2.324,0,0,1,.472.952,5.153,5.153,0,0,1,.136,1.224v5.44h-1.36v-5.6a1.643,1.643,0,0,0-.449-1.216,1.665,1.665,0,0,0-1.231-.448,2.763,2.763,0,0,0-1.079.192,2.016,2.016,0,0,0-.76.544,2.349,2.349,0,0,0-.456.824,3.334,3.334,0,0,0-.152,1.032v4.672h-1.36v-8.272Z" fill="blue"/>
    <path id="Tracciato_259" data-name="Tracciato 259" d="M79.221,354.055l-3.072-8.272h1.52l2.32,6.9h.032l2.256-6.9H83.7l-3.025,8.272Z" fill="blue"/>
    <path id="Tracciato_260" data-name="Tracciato 260" d="M85.029,344.3v-1.664h1.36V344.3Zm1.36,1.488v8.272h-1.36v-8.272Z" fill="blue"/>
    <path id="Tracciato_261" data-name="Tracciato 261" d="M89.733,345.783v1.744h.032a3.687,3.687,0,0,1,1.216-1.488,3.059,3.059,0,0,1,1.824-.448v1.44a3.853,3.853,0,0,0-1.392.224,2.2,2.2,0,0,0-.928.656,2.733,2.733,0,0,0-.512,1.048,5.69,5.69,0,0,0-.16,1.416v3.68h-1.36v-8.272Z" fill="blue"/>
    <path id="Tracciato_262" data-name="Tracciato 262" d="M93.349,348.223a3.877,3.877,0,0,1,.768-1.376,3.622,3.622,0,0,1,1.264-.92,4.632,4.632,0,0,1,3.464,0,3.647,3.647,0,0,1,1.256.92,3.862,3.862,0,0,1,.768,1.376,5.5,5.5,0,0,1,.257,1.7,5.425,5.425,0,0,1-.257,1.7,3.86,3.86,0,0,1-.768,1.368,3.552,3.552,0,0,1-1.256.912,4.737,4.737,0,0,1-3.464,0,3.529,3.529,0,0,1-1.264-.912,3.876,3.876,0,0,1-.768-1.368,5.425,5.425,0,0,1-.256-1.7A5.5,5.5,0,0,1,93.349,348.223Zm1.384,3.04a2.791,2.791,0,0,0,.552.976,2.4,2.4,0,0,0,.824.6,2.508,2.508,0,0,0,2,0,2.4,2.4,0,0,0,.824-.6,2.792,2.792,0,0,0,.552-.976,4.562,4.562,0,0,0,0-2.672,2.9,2.9,0,0,0-.552-.984,2.351,2.351,0,0,0-.824-.608,2.508,2.508,0,0,0-2,0,2.351,2.351,0,0,0-.824.608,2.9,2.9,0,0,0-.552.984,4.562,4.562,0,0,0,0,2.672Z" fill="blue"/>
    <path id="Tracciato_263" data-name="Tracciato 263" d="M104,345.783V347.1h.033a2.864,2.864,0,0,1,2.688-1.5,3.6,3.6,0,0,1,1.36.224,2.243,2.243,0,0,1,.879.624,2.314,2.314,0,0,1,.473.952,5.153,5.153,0,0,1,.136,1.224v5.44h-1.361v-5.6a1.642,1.642,0,0,0-.448-1.216,1.665,1.665,0,0,0-1.231-.448,2.768,2.768,0,0,0-1.08.192,2.016,2.016,0,0,0-.76.544,2.333,2.333,0,0,0-.456.824,3.334,3.334,0,0,0-.152,1.032v4.672h-1.36v-8.272Z" fill="blue"/>
    <path id="Tracciato_264" data-name="Tracciato 264" d="M112.9,345.783V347h.032A3.225,3.225,0,0,1,117,345.911a1.792,1.792,0,0,1,.88,1.088,2.883,2.883,0,0,1,1.1-1.04,3.1,3.1,0,0,1,1.5-.368,4.359,4.359,0,0,1,1.128.136,2.345,2.345,0,0,1,.864.424,1.929,1.929,0,0,1,.56.744,2.723,2.723,0,0,1,.2,1.1v6.064h-1.36v-5.424a3.9,3.9,0,0,0-.064-.72,1.478,1.478,0,0,0-.24-.584,1.2,1.2,0,0,0-.488-.392,1.942,1.942,0,0,0-.808-.144,2.141,2.141,0,0,0-1.584.576,2.08,2.08,0,0,0-.576,1.536v5.152h-1.36v-5.424a3.52,3.52,0,0,0-.072-.736,1.533,1.533,0,0,0-.248-.584,1.17,1.17,0,0,0-.472-.384,1.836,1.836,0,0,0-.76-.136,2.031,2.031,0,0,0-1.016.24A2.3,2.3,0,0,0,113.1,348.3a1.974,1.974,0,0,0-.12.6v5.152h-1.359v-8.272Z" fill="blue"/>
    <path id="Tracciato_265" data-name="Tracciato 265" d="M131.125,353.527a3.761,3.761,0,0,1-2.336.7,4.252,4.252,0,0,1-1.72-.32,3.4,3.4,0,0,1-1.225-.9,3.8,3.8,0,0,1-.743-1.376,6.583,6.583,0,0,1-.28-1.744,4.98,4.98,0,0,1,.288-1.728,4.1,4.1,0,0,1,.808-1.36,3.652,3.652,0,0,1,1.232-.9,3.766,3.766,0,0,1,1.56-.32,3.4,3.4,0,0,1,1.832.456,3.626,3.626,0,0,1,1.168,1.16,4.6,4.6,0,0,1,.608,1.536,6.653,6.653,0,0,1,.136,1.584H126.26a3.334,3.334,0,0,0,.128,1.032,2.35,2.35,0,0,0,.465.864,2.272,2.272,0,0,0,.815.6,2.827,2.827,0,0,0,1.168.224,2.35,2.35,0,0,0,1.416-.4,1.932,1.932,0,0,0,.729-1.216h1.344A3.31,3.31,0,0,1,131.125,353.527Zm-.329-5.312a2.336,2.336,0,0,0-.5-.744,2.364,2.364,0,0,0-.735-.5,2.324,2.324,0,0,0-.937-.184,2.37,2.37,0,0,0-.952.184,2.2,2.2,0,0,0-.727.5,2.418,2.418,0,0,0-.481.744,2.862,2.862,0,0,0-.208.9h4.752A2.766,2.766,0,0,0,130.8,348.215Z" fill="blue"/>
    <path id="Tracciato_266" data-name="Tracciato 266" d="M135.139,345.783V347.1h.032a2.866,2.866,0,0,1,2.689-1.5,3.588,3.588,0,0,1,1.359.224,2.24,2.24,0,0,1,.88.624,2.314,2.314,0,0,1,.473.952,5.153,5.153,0,0,1,.136,1.224v5.44h-1.361v-5.6a1.642,1.642,0,0,0-.448-1.216,1.665,1.665,0,0,0-1.231-.448,2.777,2.777,0,0,0-1.081.192,2.02,2.02,0,0,0-.759.544,2.333,2.333,0,0,0-.456.824,3.334,3.334,0,0,0-.153,1.032v4.672H133.86v-8.272Z" fill="blue"/>
    <path id="Tracciato_267" data-name="Tracciato 267" d="M146.292,345.783v1.2h-1.648v5.136a1.469,1.469,0,0,0,.04.384.393.393,0,0,0,.151.224.671.671,0,0,0,.313.1,4.537,4.537,0,0,0,.52.024h.624v1.2h-1.04a4.878,4.878,0,0,1-.9-.072,1.323,1.323,0,0,1-.608-.264,1.119,1.119,0,0,1-.344-.544,3.129,3.129,0,0,1-.112-.928v-5.264h-1.408v-1.2h1.408V343.3h1.36v2.48Z" fill="blue"/>
    <path id="Tracciato_268" data-name="Tracciato 268" d="M155.124,354.02a1.9,1.9,0,0,1-.976.211,1.172,1.172,0,0,1-.84-.3,1.286,1.286,0,0,1-.312-.968,3.248,3.248,0,0,1-1.3.968,4.5,4.5,0,0,1-2.672.168,2.454,2.454,0,0,1-.872-.4,1.923,1.923,0,0,1-.584-.712,2.4,2.4,0,0,1-.216-1.064,2.432,2.432,0,0,1,.24-1.152,2.1,2.1,0,0,1,.632-.728,2.907,2.907,0,0,1,.9-.424q.5-.144,1.032-.24.56-.112,1.064-.168a5.926,5.926,0,0,0,.888-.16,1.472,1.472,0,0,0,.608-.3.743.743,0,0,0,.224-.584,1.358,1.358,0,0,0-.168-.72,1.155,1.155,0,0,0-.432-.416,1.754,1.754,0,0,0-.592-.192,4.48,4.48,0,0,0-.648-.048,2.883,2.883,0,0,0-1.44.328,1.393,1.393,0,0,0-.624,1.24h-1.36a2.933,2.933,0,0,1,.32-1.3,2.429,2.429,0,0,1,.768-.856,3.233,3.233,0,0,1,1.1-.472,5.787,5.787,0,0,1,1.32-.144,7.8,7.8,0,0,1,1.112.08,2.908,2.908,0,0,1,1,.327,1.9,1.9,0,0,1,.719.7,2.21,2.21,0,0,1,.273,1.165v4.247a3.12,3.12,0,0,0,.056.7c.038.149.163.224.376.224a1.329,1.329,0,0,0,.416-.08Zm-2.208-4.253a1.681,1.681,0,0,1-.672.28c-.278.059-.568.107-.872.144s-.611.08-.92.128a3.4,3.4,0,0,0-.832.232,1.508,1.508,0,0,0-.6.456,1.275,1.275,0,0,0-.232.808,1.074,1.074,0,0,0,.488.944,1.464,1.464,0,0,0,.5.208,2.772,2.772,0,0,0,.608.064,3.218,3.218,0,0,0,1.152-.184,2.416,2.416,0,0,0,.784-.464,1.816,1.816,0,0,0,.448-.608,1.539,1.539,0,0,0,.144-.616Z" fill="blue"/>
    <path id="Tracciato_269" data-name="Tracciato 269" d="M157.827,342.631v11.424h-1.361V342.631Z" fill="blue"/>
    <path id="Tracciato_270" data-name="Tracciato 270" d="M166.515,342.631v11.424h-1.52V342.631Z" fill="blue"/>
    <path id="Tracciato_271" data-name="Tracciato 271" d="M170.129,345.783V347h.033a3.224,3.224,0,0,1,4.064-1.088,1.793,1.793,0,0,1,.88,1.088,2.885,2.885,0,0,1,1.1-1.04,3.1,3.1,0,0,1,1.5-.368,4.359,4.359,0,0,1,1.128.136,2.345,2.345,0,0,1,.864.424,1.939,1.939,0,0,1,.56.744,2.74,2.74,0,0,1,.2,1.1v6.064h-1.361v-5.424a3.907,3.907,0,0,0-.063-.72,1.478,1.478,0,0,0-.24-.584,1.208,1.208,0,0,0-.489-.392,1.937,1.937,0,0,0-.807-.144,2.14,2.14,0,0,0-1.584.576,2.076,2.076,0,0,0-.576,1.536v5.152h-1.361v-5.424a3.522,3.522,0,0,0-.071-.736,1.564,1.564,0,0,0-.248-.584,1.167,1.167,0,0,0-.473-.384,1.835,1.835,0,0,0-.759-.136,2.028,2.028,0,0,0-1.016.24,2.292,2.292,0,0,0-1.072,1.272,1.974,1.974,0,0,0-.12.6v5.152h-1.36v-8.272Z" fill="blue"/>
    <path id="Tracciato_272" data-name="Tracciato 272" d="M189.825,354.02a1.9,1.9,0,0,1-.976.211,1.173,1.173,0,0,1-.84-.3,1.286,1.286,0,0,1-.312-.968,3.248,3.248,0,0,1-1.3.968,4.5,4.5,0,0,1-2.672.168,2.453,2.453,0,0,1-.872-.4,1.923,1.923,0,0,1-.584-.712,2.8,2.8,0,0,1,.025-2.216,2.085,2.085,0,0,1,.631-.728,2.907,2.907,0,0,1,.9-.424c.336-.1.681-.176,1.032-.24q.56-.112,1.065-.168a5.911,5.911,0,0,0,.887-.16,1.472,1.472,0,0,0,.608-.3.743.743,0,0,0,.224-.584,1.358,1.358,0,0,0-.168-.72,1.147,1.147,0,0,0-.432-.416,1.754,1.754,0,0,0-.592-.192,4.48,4.48,0,0,0-.648-.048,2.883,2.883,0,0,0-1.44.328,1.393,1.393,0,0,0-.624,1.24h-1.36a2.947,2.947,0,0,1,.32-1.3,2.422,2.422,0,0,1,.769-.856,3.219,3.219,0,0,1,1.1-.472,5.79,5.79,0,0,1,1.321-.144,7.784,7.784,0,0,1,1.111.08,2.908,2.908,0,0,1,1,.327,1.912,1.912,0,0,1,.72.7,2.22,2.22,0,0,1,.272,1.165v4.247a3.181,3.181,0,0,0,.056.7c.038.149.163.224.376.224a1.324,1.324,0,0,0,.416-.08Zm-2.208-4.253a1.681,1.681,0,0,1-.672.28q-.416.088-.872.144t-.92.128a3.4,3.4,0,0,0-.832.232,1.516,1.516,0,0,0-.6.456,1.275,1.275,0,0,0-.232.808,1.1,1.1,0,0,0,.137.568,1.121,1.121,0,0,0,.351.376,1.48,1.48,0,0,0,.5.208,2.778,2.778,0,0,0,.608.064,3.214,3.214,0,0,0,1.152-.184,2.415,2.415,0,0,0,.784-.464,1.816,1.816,0,0,0,.448-.608,1.539,1.539,0,0,0,.144-.616Z" fill="blue"/>
    <path id="Tracciato_273" data-name="Tracciato 273" d="M197.3,356.391a3.777,3.777,0,0,1-2.911,1.008,5.65,5.65,0,0,1-1.176-.128,3.618,3.618,0,0,1-1.088-.416,2.528,2.528,0,0,1-.808-.752,2.14,2.14,0,0,1-.353-1.136h1.361a1.01,1.01,0,0,0,.232.624,1.693,1.693,0,0,0,.528.416,2.538,2.538,0,0,0,.68.232,3.667,3.667,0,0,0,.7.072,2.516,2.516,0,0,0,1.136-.232,2.133,2.133,0,0,0,.768-.64,2.641,2.641,0,0,0,.44-.984,5.535,5.535,0,0,0,.136-1.264v-.544h-.032a2.286,2.286,0,0,1-1.064,1.128,3.3,3.3,0,0,1-1.513.36,3.639,3.639,0,0,1-1.615-.336,3.372,3.372,0,0,1-1.152-.9,3.845,3.845,0,0,1-.7-1.328,5.465,5.465,0,0,1-.232-1.608,6.293,6.293,0,0,1,.192-1.512,4.09,4.09,0,0,1,.64-1.408,3.512,3.512,0,0,1,1.184-1.04,3.684,3.684,0,0,1,1.808-.408,3.058,3.058,0,0,1,1.44.344,2.428,2.428,0,0,1,1.024,1.032h.016v-1.184h1.28v7.568A4.351,4.351,0,0,1,197.3,356.391Zm-1.735-3.72a2.231,2.231,0,0,0,.76-.736,3.372,3.372,0,0,0,.424-1.032,5.034,5.034,0,0,0,.136-1.152,4.5,4.5,0,0,0-.129-1.072,2.955,2.955,0,0,0-.407-.952,2.129,2.129,0,0,0-.728-.68,2.157,2.157,0,0,0-1.088-.256,2.349,2.349,0,0,0-1.12.248,2.169,2.169,0,0,0-.76.664,2.812,2.812,0,0,0-.432.96,4.706,4.706,0,0,0-.136,1.136,5.742,5.742,0,0,0,.112,1.12,3.158,3.158,0,0,0,.384,1.016,2.158,2.158,0,0,0,.72.736,2.072,2.072,0,0,0,1.12.28A2.2,2.2,0,0,0,195.561,352.671Z" fill="blue"/>
    <path id="Tracciato_274" data-name="Tracciato 274" d="M206.128,353.527a3.756,3.756,0,0,1-2.335.7,4.252,4.252,0,0,1-1.72-.32,3.388,3.388,0,0,1-1.225-.9,3.8,3.8,0,0,1-.743-1.376,6.583,6.583,0,0,1-.28-1.744,4.957,4.957,0,0,1,.288-1.728,4.119,4.119,0,0,1,.807-1.36,3.665,3.665,0,0,1,1.233-.9,3.761,3.761,0,0,1,1.559-.32,3.391,3.391,0,0,1,1.832.456,3.617,3.617,0,0,1,1.168,1.16,4.6,4.6,0,0,1,.609,1.536,6.652,6.652,0,0,1,.136,1.584h-6.193a3.275,3.275,0,0,0,.128,1.032,2.35,2.35,0,0,0,.465.864,2.272,2.272,0,0,0,.815.6,2.824,2.824,0,0,0,1.168.224,2.35,2.35,0,0,0,1.416-.4,1.932,1.932,0,0,0,.729-1.216h1.344A3.307,3.307,0,0,1,206.128,353.527Zm-.328-5.312a2.336,2.336,0,0,0-.5-.744,2.364,2.364,0,0,0-.735-.5,2.324,2.324,0,0,0-.937-.184,2.367,2.367,0,0,0-.952.184,2.2,2.2,0,0,0-.727.5,2.418,2.418,0,0,0-.481.744,2.862,2.862,0,0,0-.208.9h4.752A2.766,2.766,0,0,0,205.8,348.215Z" fill="blue"/>
    <path id="Tracciato_275" data-name="Tracciato 275" d="M209.9,352.207a1.45,1.45,0,0,0,.5.5,2.273,2.273,0,0,0,.7.264,4.064,4.064,0,0,0,.808.08,4.973,4.973,0,0,0,.672-.048,2.487,2.487,0,0,0,.649-.176,1.207,1.207,0,0,0,.487-.376,1,1,0,0,0,.192-.632.905.905,0,0,0-.4-.8,3.417,3.417,0,0,0-1-.44c-.4-.112-.835-.213-1.3-.3a6.717,6.717,0,0,1-1.3-.384,2.679,2.679,0,0,1-1-.7,1.809,1.809,0,0,1-.4-1.248,1.98,1.98,0,0,1,.281-1.072,2.293,2.293,0,0,1,.719-.728,3.3,3.3,0,0,1,.992-.416,4.613,4.613,0,0,1,1.1-.136,6.523,6.523,0,0,1,1.3.12,2.982,2.982,0,0,1,1.048.416,2.139,2.139,0,0,1,.728.8,3.06,3.06,0,0,1,.321,1.256h-1.361a1.3,1.3,0,0,0-.656-1.088,2.063,2.063,0,0,0-.6-.232,3.1,3.1,0,0,0-.665-.072,4.046,4.046,0,0,0-.616.048,2.079,2.079,0,0,0-.568.168,1.144,1.144,0,0,0-.415.32.8.8,0,0,0-.16.52.762.762,0,0,0,.248.584,1.965,1.965,0,0,0,.632.384,5.508,5.508,0,0,0,.864.256c.319.069.639.142.96.216a10.294,10.294,0,0,1,1,.272,3.274,3.274,0,0,1,.863.424,2.078,2.078,0,0,1,.608.664,1.947,1.947,0,0,1,.232.992,2.306,2.306,0,0,1-.312,1.248,2.43,2.43,0,0,1-.816.8,3.406,3.406,0,0,1-1.136.424,6.724,6.724,0,0,1-1.256.12,5.816,5.816,0,0,1-1.312-.144,3.229,3.229,0,0,1-1.1-.472,2.392,2.392,0,0,1-.767-.864,2.987,2.987,0,0,1-.321-1.3H209.7A1.513,1.513,0,0,0,209.9,352.207Z" fill="blue"/>
  </g>
</svg>
