<svg width="147.903" height="58.905" viewBox="0 0 147.903 58.905">
  <g id="Group_172" data-name="Group 172" transform="translate(-31 -28.35)">
    <path id="Path_216" data-name="Path 216" d="M0,0H147.9V-58.9H0Z" transform="translate(31 87.255)" fill="none"/>
    <path id="Path_217" data-name="Path 217" d="M0,0-4.27,11.42v0h3.055L-.5,9.374H3.489l.7,2.049H7.3L3.025,0ZM1.489,3.167h.032l1.264,4H.193Z" transform="translate(35.271 28.592)"/>
    <path id="Path_218" data-name="Path 218" d="M0,0V7.039H-.032L-4,0H-7.055V11.423h2.8V4.3h.031l3.968,7.119H2.8V0Z" transform="translate(51.581 28.592)"/>
    <path id="Path_219" data-name="Path 219" d="M26.284-52.745H31.26v2.305H26.284Z" transform="translate(31 87.255)"/>
    <path id="Path_220" data-name="Path 220" d="M34.176-47.24h2.976V-58.663H34.176Z" transform="translate(31 87.255)"/>
    <g id="Group_43" data-name="Group 43" transform="translate(78.601 32.67)">
      <path id="Path_221" data-name="Path 221" d="M0,0A2.071,2.071,0,0,0-2.3-1.759c-1.92,0-2.656,1.7-2.656,3.391S-4.224,5.024-2.3,5.024A2.121,2.121,0,0,0,0,2.912H2.977C2.815,5.856.657,7.585-2.24,7.585A5.624,5.624,0,0,1-7.935,1.632,5.623,5.623,0,0,1-2.24-4.319C.224-4.319,2.9-2.751,2.977,0Z"/>
    </g>
    <g id="Group_44" data-name="Group 44" transform="translate(89.167 28.351)">
      <path id="Path_222" data-name="Path 222" d="M0,0C3.6,0,5.633,2.641,5.633,5.951S3.6,11.9,0,11.9s-5.631-2.64-5.631-5.953S-3.6,0,0,0M0,9.344c1.92,0,2.656-1.7,2.656-3.393S1.92,2.561,0,2.561s-2.656,1.695-2.656,3.39S-1.919,9.344,0,9.344"/>
    </g>
    <path id="Path_223" data-name="Path 223" d="M0,0H147.9V-58.9H0Z" transform="translate(31 87.255)" fill="none"/>
    <path id="Path_224" data-name="Path 224" d="M0,0V7.039H-.033L-4,0H-7.055V11.423h2.8V4.3h.031l3.967,7.119H2.8V0Z" transform="translate(104.247 28.592)"/>
  </g>
</svg>
