<svg xmlns="http://www.w3.org/2000/svg" width="75.75" height="72.879" viewBox="0 0 75.75 72.879">
  <g id="Group_172" data-name="Group 172" transform="translate(-708.971 -354.172)">
    <g id="Raggruppa_40" data-name="Raggruppa 40">
      <g id="Raggruppa_39" data-name="Raggruppa 39">
        <path id="Tracciato_215" data-name="Tracciato 215" d="M727.048,357.959a10,10,0,0,0-7.084,17.059l.014.014a10,10,0,0,0,14.155-14.125l-.014-.014a9.971,9.971,0,0,0-7.071-2.934m42.466,4.316a5.686,5.686,0,1,0,4.021,1.661,5.687,5.687,0,0,0-4.021-1.661m-51.266,17.64a9.276,9.276,0,0,0-9.277,9.274v0a9.288,9.288,0,1,0,18.577.006v-.006a9.279,9.279,0,0,0-9.28-9.278h-.015m60.055,2.865a6.412,6.412,0,1,0,6.413,6.413,6.411,6.411,0,0,0-6.413-6.413m-51.26,19.051a8.59,8.59,0,1,0,6.111,2.543l-.032-.031a8.565,8.565,0,0,0-6.079-2.512m42.462,1.463a7.131,7.131,0,1,0,7.131,7.131,7.131,7.131,0,0,0-7.131-7.131m-21.232,8.1a7.829,7.829,0,1,0,5.528,2.3,7.828,7.828,0,0,0-5.528-2.3m0-57.222a5.006,5.006,0,1,0,.009,0"/>
      </g>
    </g>
  </g>
</svg>
