<svg id="Livello_1" data-name="Livello 1" xmlns="http://www.w3.org/2000/svg" viewBox="0 0 184.93392 73.6687">
    <g id="Logo">
        <g id="Raggruppa_40" data-name="Raggruppa 40">
            <g id="Raggruppa_39" data-name="Raggruppa 39">
                <path id="Tracciato_215" data-name="Tracciato 215"
                    d="M127.26094,4.57717a10.00314,10.00314,0,0,0-7.0838,17.05873l.01409.01409A9.99853,9.99853,0,0,0,134.346,7.52467l-.01409-.01409a9.96561,9.96561,0,0,0-7.07095-2.93341m42.46574,4.31509a5.688,5.688,0,1,0,4.02126,1.66177,5.688,5.688,0,0,0-4.02126-1.66177m-51.266,17.6405a9.2754,9.2754,0,0,0-9.27665,9.27415v.00375a9.28852,9.28852,0,1,0,18.577.00625v-.00625a9.27915,9.27915,0,0,0-9.28038-9.27791l-.015,0m60.055,2.86465a6.412,6.412,0,1,0,6.41325,6.41325,6.412,6.412,0,0,0-6.41325-6.41325M127.26094,48.44835a8.59137,8.59137,0,1,0,6.1111,2.54374l-.03171-.03171a8.57264,8.57264,0,0,0-6.07939-2.512m42.462,1.46295a7.131,7.131,0,1,0,7.131,7.131,7.131,7.131,0,0,0-7.131-7.131m-21.23162,8.1a7.8004,7.8004,0,1,1-.0025,0m0-57.2216a5.01171,5.01171,0,1,0,.00875,0" />
            </g>
        </g>
        <g id="Raggruppa_41" data-name="Raggruppa 41">
            <path id="Tracciato_217" data-name="Tracciato 217"
                d="M5.33917.30208,0,14.58154H3.81994l.894-2.5583H9.70178l.87527,2.56205h3.89L9.12159.30208Zm1.86183,3.96h.04L8.8215,9.26363h-3.241Z" />
        </g>
        <g id="Raggruppa_42" data-name="Raggruppa 42">
            <path id="Tracciato_218" data-name="Tracciato 218"
                d="M25.733.30208v8.8015h-.04L20.73146.30208H16.91152V14.58529h3.5011V5.67876h.03876l4.96154,8.90153h3.8212V.30208Z" />
        </g>
        <path id="Tracciato_219" data-name="Tracciato 219" d="M32.864,7.70189h6.22194V10.584H32.864Z" />
        <path id="Tracciato_220" data-name="Tracciato 220" d="M42.73207,14.58529h3.72117V.30209H42.73207Z" />
        <g id="Raggruppa_45" data-name="Raggruppa 45">
            <g id="Raggruppa_43" data-name="Raggruppa 43">
                <path id="Tracciato_221" data-name="Tracciato 221"
                    d="M59.51856,5.40117a2.58954,2.58954,0,0,0-2.87589-2.19943c-2.40075,0-3.321,2.12566-3.321,4.24007s.91529,4.24132,3.321,4.24132A2.65207,2.65207,0,0,0,59.5091,9.26434q.00939-.11078.00946-.222H63.241c-.20256,3.68115-2.9009,5.84307-6.52328,5.84307a7.03218,7.03218,0,0,1-7.13233-6.9306q-.00369-.25661.01136-.513A7.03093,7.03093,0,0,1,56.20478.012q.25617-.015.51291-.01128c3.081,0,6.427,1.96061,6.52328,5.40043Z" />
            </g>
            <g id="Raggruppa_44" data-name="Raggruppa 44">
                <path id="Tracciato_222" data-name="Tracciato 222"
                    d="M72.73018.00074c4.50141,0,7.04345,3.30228,7.04345,7.44107s-2.542,7.43857-7.04345,7.43857-7.04094-3.301-7.04094-7.44357S68.22878.00074,72.73018.00074m0,11.68364c2.40075,0,3.321-2.12566,3.321-4.24257S75.13093,3.203,72.73018,3.203s-3.321,2.11941-3.321,4.23882.92153,4.24257,3.321,4.24257" />
            </g>
        </g>
        <g id="Raggruppa_46" data-name="Raggruppa 46">
            <path id="Tracciato_224" data-name="Tracciato 224"
                d="M91.58481.30208v8.8015h-.04126L86.58325.30208H82.76331V14.58529h3.5011V5.67876h.03876l4.96029,8.90153h3.82245V.30208Z" />
        </g>
    </g>
</svg>