<svg id="Livello_1" data-name="Livello 1" xmlns="http://www.w3.org/2000/svg" viewBox="0 0 294.58098 73.66642">
    <defs>
        <style>
            .cls-1 {
                fill: #1d1d1b;
            }
        </style>
    </defs>
    <polygon class="cls-1"
        points="9.222 25.299 9.222 30.5 4.321 30.5 4.321 25.299 0.6 25.299 0.6 39.583 4.321 39.583 4.321 33.702 9.222 33.702 9.222 39.583 12.943 39.583 12.943 25.299 9.222 25.299" />
    <path class="cls-1" d="M15.04081,29.2002h3.40005V39.58335h-3.4Zm3.40005-1.3h-3.4v-2.601h3.40005Z" />
    <path class="cls-1"
        d="M23.48093,36.1618a1.39492,1.39492,0,0,0,.56,1.16,2.13042,2.13042,0,0,0,1.26.361c.66,0,1.601-.281,1.601-1.101,0-.8-1.061-.961-1.661-1.1-2.14-.54-4.82107-.6-4.82107-3.401,0-2.501,2.701-3.181,4.74107-3.181,2.28,0,4.66107.66,4.78107,3.36105h-3.14a.97849.97849,0,0,0-.441-.9,2.00657,2.00657,0,0,0-1.08-.261c-.56,0-1.46.061-1.46.781,0,.98,2.281,1.16,3.84106,1.5a2.94332,2.94332,0,0,1,2.64,2.801c0,2.781-2.64,3.701-4.98107,3.701-2.46,0-4.98107-.82-5.08107-3.721Z" />
    <path class="cls-1"
        d="M38.22133,31.40043h-2.1V36.1215c0,.82.48,1,1.22,1,.28,0,.581-.039.88-.039v2.5c-.62.02-1.24.1-1.86.1-2.90005,0-3.64106-.841-3.64106-3.661V31.40043h-1.72v-2.201h1.72v-3.14h3.401v3.14h2.1Z" />
    <path class="cls-1"
        d="M44.70142,37.28211c1.581,0,2.081-1.561,2.081-2.881s-.5-2.90005-2.081-2.90005-2.061,1.58-2.061,2.90005.48,2.881,2.061,2.881m0-8.38211a5.323,5.323,0,0,1,5.48108,5.50108,5.47109,5.47109,0,1,1-10.94216,0A5.30669,5.30669,0,0,1,44.70142,28.9" />
    <path class="cls-1"
        d="M51.28061,29.1998h3.301v1.821h.039a3.1312,3.1312,0,0,1,3.121-2.021,3.61418,3.61418,0,0,1,.8.08v3.10105a4.763,4.763,0,0,0-1.3-.2,2.388,2.388,0,0,0-2.56,2.461v5.14108h-3.401Z" />
    <path class="cls-1"
        d="M65.74071,40.50266c-.82,2.281-2.04,2.561-4.34106,2.561h-1.6v-2.761h1.18a1.20662,1.20662,0,0,0,1.361-1.16,14.27128,14.27128,0,0,0-.861-2.721l-2.68-7.2221h3.60106l1.961,6.7621h.039l1.961-6.7621h3.48Z" />
    <path class="cls-1"
        d="M69.14017,35.862h3.721v3.3a3.79877,3.79877,0,0,1-3.721,3.90105v-1.6a1.92438,1.92438,0,0,0,1.64-1.88h-1.64Z" />
    <polygon class="cls-1"
        points="91.062 28.5 86.801 28.5 86.801 39.583 83.081 39.583 83.081 28.5 78.82 28.5 78.82 25.299 91.062 25.299 91.062 28.5" />
    <path class="cls-1"
        d="M92.55949,25.29934h3.401v5.32108h.04a3.62109,3.62109,0,0,1,3.16105-1.72c3.46,0,3.74105,2.521,3.74105,4.021v6.66109H99.50058V34.56147c0-1.42.161-2.861-1.7-2.861-1.28,0-1.84,1.08-1.84,2.221v5.66107h-3.401Z" />
    <path class="cls-1"
        d="M112.28225,33.32126a2.10429,2.10429,0,0,0-2.021-2.121,2.24235,2.24235,0,0,0-2.2,2.121Zm-4.22105,1.9a2.216,2.216,0,0,0,2.32,2.361,2.02843,2.02843,0,0,0,1.94-1.141h3.181c-.62,2.401-2.84,3.44105-5.16107,3.44105-3.38105,0-5.68108-2.04-5.68108-5.52107a5.44845,5.44845,0,0,1,5.60108-5.46108c3.72105,0,5.58108,2.8,5.42207,6.32109Z" />
    <path class="cls-1"
        d="M122.3411,37.28211c1.58,0,2.08-1.561,2.08-2.881s-.5-2.90005-2.08-2.90005-2.061,1.58-2.061,2.90005.481,2.881,2.061,2.881m0-8.38211a5.323,5.323,0,0,1,5.48107,5.50108,5.47108,5.47108,0,1,1-10.94215,0A5.30669,5.30669,0,0,1,122.3411,28.9" />
    <path class="cls-1"
        d="M129.3202,29.1998h3.301v1.821h.04a3.12907,3.12907,0,0,1,3.12005-2.021,3.62909,3.62909,0,0,1,.801.08v3.10105a4.77615,4.77615,0,0,0-1.301-.2,2.38745,2.38745,0,0,0-2.56005,2.461v5.14108h-3.401Z" />
    <path class="cls-1"
        d="M143.7809,40.50266c-.819,2.281-2.04,2.561-4.34007,2.561h-1.6v-2.761h1.18a1.20626,1.20626,0,0,0,1.36-1.16,14.26678,14.26678,0,0,0-.86-2.721l-2.681-7.2221h3.60105l1.96,6.7621h.04l1.96-6.7621h3.482Z" />
    <path class="cls-1"
        d="M147.17986,35.862h3.721v3.3a3.79877,3.79877,0,0,1-3.721,3.90105v-1.6a1.92618,1.92618,0,0,0,1.641-1.88h-1.641Z" />
    <path class="cls-1"
        d="M163.10066,37.78252c1.62,0,2.16-.921,2.08-3.061a9.59633,9.59633,0,0,1-2.1.56c-.76.18-1.401.5-1.401,1.32,0,.841.661,1.181,1.421,1.181m-4.401-5.38207a3.19041,3.19041,0,0,1,1.621-2.78,6.84543,6.84543,0,0,1,3.3-.72c2.46,0,4.84107.54,4.84107,3.48005v4.54106a6.02735,6.02735,0,0,0,.401,2.661h-3.42106a4.01686,4.01686,0,0,1-.2-.98,4.68728,4.68728,0,0,1-3.42105,1.28c-1.981,0-3.541-1-3.541-3.141,0-3.381,3.68006-3.12,6.04209-3.6.579-.121.899-.321.899-.961,0-.78-.94-1.08-1.64-1.08a1.52235,1.52235,0,0,0-1.701,1.3Z" />
    <path class="cls-1"
        d="M170.69978,29.1998h3.301v1.421h.04a3.91818,3.91818,0,0,1,3.26006-1.721c3.46105,0,3.74105,2.521,3.74105,4.02105v6.6621h-3.401V34.56188c0-1.421.16-2.861-1.7-2.861-1.281,0-1.84,1.08-1.84,2.22v5.66208h-3.401Z" />
    <path class="cls-1"
        d="M186.20028,34.28167c0,1.42.52,3,2.08,3,1.661,0,2.021-1.58,2.021-2.901,0-1.5-.541-2.88-2.021-2.88-1.56,0-2.08,1.46-2.08,2.781m7.38112,5.30108h-3.24v-1.2h-.04a3.31788,3.31788,0,0,1-2.861,1.5c-3.26,0-4.64107-2.8-4.64107-5.72108,0-2.701,1.44-5.26207,4.38107-5.26207a3.47494,3.47494,0,0,1,2.961,1.421h.039V25.29955h3.401Z" />
    <path class="cls-1"
        d="M205.26006,31.94144h2.5c1.161,0,2.001-.481,2.001-1.781a1.75931,1.75931,0,0,0-2.001-1.881h-2.5Zm-3.72105-6.6421h6.7821c2.66,0,5.16006,1.22,5.16006,4.60107,0,3.541-2.02,4.92107-5.16006,4.92107h-3.061v4.76106H201.539Z" />
    <path class="cls-1"
        d="M215.2194,29.1998h3.301v1.821h.04a3.12993,3.12993,0,0,1,3.12-2.021,3.62307,3.62307,0,0,1,.801.08v3.10105a4.76434,4.76434,0,0,0-1.301-.2,2.388,2.388,0,0,0-2.56,2.461v5.14108h-3.401Z" />
    <path class="cls-1"
        d="M227.88086,37.78252c1.62,0,2.161-.921,2.08-3.061a9.59633,9.59633,0,0,1-2.1.56c-.76.18-1.401.5-1.401,1.32,0,.841.661,1.181,1.421,1.181m-4.40105-5.38207a3.19041,3.19041,0,0,1,1.621-2.78,6.84543,6.84543,0,0,1,3.3-.72c2.46,0,4.84107.54,4.84107,3.48005v4.54106a6.02735,6.02735,0,0,0,.401,2.661h-3.42106a4.01686,4.01686,0,0,1-.2-.98,4.68728,4.68728,0,0,1-3.42105,1.28c-1.981,0-3.54105-1-3.54105-3.141,0-3.381,3.68006-3.12,6.04209-3.6.579-.121.899-.321.899-.961,0-.78-.94-1.08-1.64-1.08a1.52235,1.52235,0,0,0-1.701,1.3Z" />
    <path class="cls-1"
        d="M242.24077,33.00106a1.6,1.6,0,0,0-1.66-1.5c-1.901,0-2.2,1.62-2.2,3.06105,0,1.339.579,2.72,2.02,2.72a1.82178,1.82178,0,0,0,1.94-1.781h3.301c-.3,2.781-2.461,4.38106-5.22106,4.38106a5.16758,5.16758,0,0,1-5.44107-5.32007c0-3.301,2.1-5.66208,5.44107-5.66208,2.58,0,4.88106,1.36,5.12107,4.10106Z" />
    <path class="cls-1"
        d="M253.60084,31.40043h-2.1V36.1215c0,.82.48,1,1.22,1,.28,0,.58-.039.88-.039v2.5c-.62.02-1.241.1-1.861.1-2.9,0-3.64005-.841-3.64005-3.661V31.40043h-1.72v-2.201h1.72v-3.14h3.401v3.14h2.1Z" />
    <path class="cls-1" d="M255.23915,29.2002h3.4V39.58335h-3.4Zm3.401-1.3h-3.4v-2.601h3.4Z" />
    <path class="cls-1"
        d="M267.80124,33.00106a1.60027,1.60027,0,0,0-1.661-1.5c-1.901,0-2.2,1.62-2.2,3.06105,0,1.339.58,2.72,2.02,2.72a1.82319,1.82319,0,0,0,1.941-1.781h3.30007c-.299,2.781-2.461,4.38106-5.22008,4.38106a5.16841,5.16841,0,0,1-5.44209-5.32007c0-3.301,2.1-5.66208,5.44209-5.66208,2.579,0,4.88007,1.36,5.12108,4.10106Z" />
    <path class="cls-1"
        d="M280.02038,33.32126a2.10277,2.10277,0,0,0-2.02-2.121,2.24163,2.24163,0,0,0-2.2,2.121Zm-4.22,1.9a2.216,2.216,0,0,0,2.32,2.361,2.02843,2.02843,0,0,0,1.94-1.141h3.181c-.62,2.401-2.84,3.44105-5.161,3.44105-3.38106,0-5.68108-2.04-5.68108-5.52107a5.44843,5.44843,0,0,1,5.60106-5.46108c3.72106,0,5.58107,2.8,5.42207,6.32109Z" />
    <path class="cls-1"
        d="M287.7599,36.1618a1.39486,1.39486,0,0,0,.56,1.16,2.13039,2.13039,0,0,0,1.26.361c.66,0,1.601-.281,1.601-1.101,0-.8-1.061-.961-1.661-1.1-2.14-.54-4.82105-.6-4.82105-3.401,0-2.501,2.701-3.181,4.74106-3.181,2.28,0,4.661.66,4.78108,3.36105h-3.14006a.9785.9785,0,0,0-.441-.9,2.00647,2.00647,0,0,0-1.08-.261c-.56,0-1.46.061-1.46.781,0,.98,2.281,1.16,3.841,1.5a2.94334,2.94334,0,0,1,2.64,2.801c0,2.781-2.64,3.701-4.98106,3.701-2.46006,0-4.98109-.82-5.0811-3.721Z" />
    <path class="cls-1"
        d="M5.46108,62.28246c1.58,0,2.08-1.561,2.08-2.881s-.5-2.9-2.08-2.9-2.06,1.58-2.06,2.9.48,2.881,2.06,2.881m0-8.38212a5.49109,5.49109,0,0,1,0,10.98216,5.49116,5.49116,0,0,1,0-10.98216" />
    <path class="cls-1"
        d="M13.46019,56.40078h-1.641v-2.201h1.641c0-2.98,1.04-3.9,3.94105-3.9.539,0,1.1.039,1.64.059v2.401a7.35461,7.35461,0,0,0-.92-.06c-.781,0-1.26.1-1.26,1.041v.459h2.04v2.201h-2.04v8.18211h-3.401Z" />
    <polygon class="cls-1"
        points="26.56 50.3 37.942 50.3 37.942 53.28 30.281 53.28 30.281 55.781 37.282 55.781 37.282 58.662 30.281 58.662 30.281 61.383 38.142 61.383 38.142 64.583 26.56 64.583 26.56 50.3" />
    <path class="cls-1"
        d="M40.11976,54.20015h3.301v1.421h.04a3.92124,3.92124,0,0,1,3.26105-1.721c3.461,0,3.74,2.521,3.74,4.02105v6.66209h-3.401V59.56222c0-1.421.161-2.861-1.699-2.861-1.281,0-1.841,1.08-1.841,2.22v5.66207h-3.401Z" />
    <polygon class="cls-1"
        points="58.902 64.583 54.981 64.583 51.52 54.2 55.061 54.2 56.962 61.062 57.001 61.062 58.922 54.2 62.382 54.2 58.902 64.583" />
    <path class="cls-1" d="M63.57948,54.20055h3.40105V64.58369H63.57948Zm3.40106-1.3H63.57949v-2.601h3.40105Z" />
    <path class="cls-1"
        d="M69.49957,54.20015h3.301v1.821h.04a3.13037,3.13037,0,0,1,3.121-2.021,3.626,3.626,0,0,1,.8.08v3.101a4.77519,4.77519,0,0,0-1.3-.2,2.38828,2.38828,0,0,0-2.561,2.461v5.14107h-3.401Z" />
    <path class="cls-1"
        d="M82.50075,62.28246c1.581,0,2.081-1.561,2.081-2.881s-.5-2.9-2.081-2.9c-1.58,0-2.06,1.58-2.06,2.9s.48,2.881,2.06,2.881m0-8.38212a5.49117,5.49117,0,1,1-5.46008,5.50108,5.32383,5.32383,0,0,1,5.46008-5.50108" />
    <path class="cls-1"
        d="M89.75965,54.20015h3.301v1.421h.04a3.91991,3.91991,0,0,1,3.261-1.721c3.46,0,3.74105,2.521,3.74105,4.02105v6.66209H96.70074V59.56222c0-1.421.161-2.861-1.7-2.861-1.28,0-1.84,1.08-1.84,2.22v5.66207h-3.401Z" />
    <path class="cls-1"
        d="M102.35942,54.20015h3.30105v1.421h.04a3.46043,3.46043,0,0,1,2.98-1.721,3.00316,3.00316,0,0,1,3.022,1.68,3.80248,3.80248,0,0,1,3.24-1.68c3.3,0,3.66105,2.501,3.66105,4.48106v6.20208h-3.401V58.48121c0-1.12-.54-1.78-1.42-1.78-1.461,0-1.6,1.12-1.6,2.8v5.08207h-3.401V58.68121c0-1.22-.36-1.98-1.281-1.98-1.22,0-1.74.7-1.74,2.82v5.06207h-3.401Z" />
    <path class="cls-1"
        d="M128.00167,58.32161a2.10361,2.10361,0,0,0-2.021-2.121,2.24235,2.24235,0,0,0-2.2,2.121Zm-4.221,1.9a2.21656,2.21656,0,0,0,2.32,2.361,2.0289,2.0289,0,0,0,1.941-1.141h3.18c-.619,2.401-2.839,3.441-5.16007,3.441-3.38205,0-5.68208-2.04-5.68208-5.52108a5.44905,5.44905,0,0,1,5.60108-5.46108c3.721,0,5.58208,2.8,5.42207,6.32109Z" />
    <path class="cls-1"
        d="M133.10006,54.20015h3.3v1.421h.041a3.91947,3.91947,0,0,1,3.26006-1.721c3.462,0,3.74105,2.521,3.74105,4.02105v6.66209h-3.40105V59.56222c0-1.421.16-2.861-1.7-2.861-1.28,0-1.841,1.08-1.841,2.22v5.66207h-3.4Z" />
    <path class="cls-1"
        d="M151.96172,56.40078h-2.1v4.72107c0,.82.48,1,1.22,1,.28,0,.58-.039.88-.039v2.5c-.62.02-1.24.1-1.861.1-2.9,0-3.64-.841-3.64-3.66105V56.40078h-1.72v-2.201h1.72v-3.14h3.401v3.14h2.1Z" />
    <path class="cls-1"
        d="M157.7417,62.78287c1.62,0,2.16-.921,2.079-3.061a9.57042,9.57042,0,0,1-2.099.56c-.76.18-1.401.5-1.401,1.32,0,.841.66,1.181,1.421,1.181m-4.40206-5.38208a3.19439,3.19439,0,0,1,1.621-2.78,6.84943,6.84943,0,0,1,3.30106-.72c2.46,0,4.84006.54,4.84006,3.48v4.54107a6.02731,6.02731,0,0,0,.401,2.661h-3.42105a4.06275,4.06275,0,0,1-.2-.98,4.68656,4.68656,0,0,1-3.42005,1.28c-1.981,0-3.54105-1-3.54105-3.14105,0-3.381,3.68-3.12,6.04109-3.6.58-.121.9-.321.9-.961,0-.78-.94-1.08-1.64-1.08a1.52117,1.52117,0,0,0-1.701,1.3Z" />
    <rect class="cls-1" x="165.4599" y="50.29949" width="3.40105" height="14.2832" />
    <rect class="cls-1" x="176.90006" y="50.29949" width="3.72104" height="14.2832" />
    <path class="cls-1"
        d="M183.05925,54.20015h3.301v1.421h.04a3.46171,3.46171,0,0,1,2.98006-1.721,3.00013,3.00013,0,0,1,3.021,1.68,3.80671,3.80671,0,0,1,3.24105-1.68c3.3,0,3.661,2.501,3.661,4.48106v6.20208h-3.401V58.48121c0-1.12-.54-1.78-1.421-1.78-1.46,0-1.6,1.12-1.6,2.8v5.08207h-3.401V58.68121c0-1.22-.359-1.98-1.279-1.98-1.221,0-1.741.7-1.741,2.82v5.06207h-3.401Z" />
    <path class="cls-1"
        d="M205.83995,62.78287c1.62,0,2.161-.921,2.081-3.061a9.62768,9.62768,0,0,1-2.1.56c-.761.18-1.401.5-1.401,1.32,0,.841.66,1.181,1.42,1.181m-4.401-5.38208a3.19239,3.19239,0,0,1,1.621-2.78,6.848,6.848,0,0,1,3.3-.72c2.461,0,4.84107.54,4.84107,3.48v4.54107a6.02731,6.02731,0,0,0,.401,2.661H208.181a4.06371,4.06371,0,0,1-.2-.98,4.68577,4.68577,0,0,1-3.421,1.28c-1.98,0-3.54105-1-3.54105-3.14105,0-3.381,3.681-3.12,6.04209-3.6.58-.121.899-.321.899-.961,0-.78-.939-1.08-1.639-1.08a1.52118,1.52118,0,0,0-1.701,1.3Z" />
    <path class="cls-1"
        d="M218.22064,56.50118c-1.5,0-1.981,1.32-1.981,2.6,0,1.221.561,2.441,1.961,2.441,1.441,0,2.06-1.12,2.06-2.421,0-1.32-.52-2.62-2.04-2.62m5.26108,6.8211c0,1.701-.32,4.90106-5.18109,4.90106-2.421,0-4.70105-.54-5.10107-3.32h3.401a1.10851,1.10851,0,0,0,.58.9,2.70137,2.70137,0,0,0,1.24.22c1.621,0,1.781-1.14,1.781-2.421v-.98h-.041a3.28527,3.28527,0,0,1-2.76,1.52c-3.141,0-4.56206-2.24-4.56206-5.16007,0-2.761,1.621-5.08207,4.56206-5.08207a3.00409,3.00409,0,0,1,2.78,1.6h.041v-1.3h3.26006Z" />
    <path class="cls-1"
        d="M232.78094,58.32161a2.10294,2.10294,0,0,0-2.021-2.121,2.24235,2.24235,0,0,0-2.2,2.121Zm-4.22106,1.9a2.21629,2.21629,0,0,0,2.321,2.361,2.02841,2.02841,0,0,0,1.94-1.141h3.18c-.62,2.401-2.84,3.441-5.16107,3.441-3.38005,0-5.68008-2.04-5.68008-5.52108a5.44821,5.44821,0,0,1,5.60008-5.46108c3.72105,0,5.58208,2.8,5.42207,6.32109Z" />
    <path class="cls-1"
        d="M240.52006,61.16215a1.393,1.393,0,0,0,.561,1.16,2.12734,2.12734,0,0,0,1.259.361c.661,0,1.601-.281,1.601-1.101,0-.8-1.06-.961-1.66-1.1-2.141-.54-4.82107-.6-4.82107-3.401,0-2.501,2.70005-3.181,4.74108-3.181,2.28,0,4.66005.66,4.78007,3.361H243.8411a.97786.97786,0,0,0-.44-.9,2.01121,2.01121,0,0,0-1.08-.261c-.561,0-1.461.061-1.461.781,0,.98,2.281,1.16,3.84205,1.5a2.94332,2.94332,0,0,1,2.64,2.801c0,2.781-2.64,3.70105-4.98206,3.70105-2.46,0-4.98008-.82-5.08007-3.72105Z" />
    <path class="cls-1"
        d="M7.65211,4.26186h.041l1.579,5.00007H6.03108ZM5.79208.2998.45,14.583H4.27206l.9-2.56h4.98007l.881,2.56h3.88006L9.57313.2998Z" />
    <polygon class="cls-1"
        points="17.351 0.3 21.172 0.3 26.134 9.102 26.174 9.102 26.174 0.3 29.674 0.3 29.674 14.583 25.853 14.583 20.892 5.682 20.851 5.682 20.851 14.583 17.351 14.583 17.351 0.3" />
    <rect class="cls-1" x="33.29106" y="7.7019" width="6.22209" height="2.88104" />
    <rect class="cls-1" x="43.1512" y="0.2998" width="3.72105" height="14.2832" />
    <path class="cls-1"
        d="M59.933,5.40107a2.589,2.589,0,0,0-2.88-2.2c-2.401,0-3.321,2.12-3.321,4.24106,0,2.12.92,4.24106,3.321,4.24106a2.65109,2.65109,0,0,0,2.88-2.641h3.721c-.2,3.681-2.901,5.84108-6.52109,5.84108-4.32106,0-7.1221-3.3-7.1221-7.4411S52.81193,0,57.133,0c3.08005,0,6.42109,1.961,6.52109,5.40107Z" />
    <path class="cls-1"
        d="M73.13242,11.68326c2.4,0,3.321-2.121,3.321-4.24206,0-2.12-.921-4.24006-3.321-4.24006s-3.32106,2.12-3.32106,4.24006c0,2.121.921,4.24206,3.32106,4.24206m0-11.68317c4.50106,0,7.04209,3.30105,7.04209,7.44111,0,4.142-2.541,7.4421-7.04209,7.4421-4.50007,0-7.0421-3.30005-7.0421-7.4421,0-4.14006,2.542-7.44111,7.0421-7.44111" />
    <polygon class="cls-1"
        points="83.151 0.3 86.972 0.3 91.933 9.102 91.973 9.102 91.973 0.3 95.474 0.3 95.474 14.583 91.653 14.583 86.692 5.682 86.652 5.682 86.652 14.583 83.151 14.583 83.151 0.3" />
    <path class="cls-1"
        d="M105.51277,11.68326c2.4,0,3.321-2.121,3.321-4.24206,0-2.12-.921-4.24006-3.321-4.24006s-3.321,2.12-3.321,4.24006c0,2.121.921,4.24206,3.321,4.24206m0-11.68317c4.50107,0,7.0421,3.30105,7.0421,7.44111,0,4.142-2.541,7.4421-7.0421,7.4421-4.50006,0-7.04209-3.30005-7.04209-7.4421,0-4.14006,2.542-7.44111,7.04209-7.44111" />
    <polygon class="cls-1"
        points="115.572 0.3 119.293 0.3 119.293 11.383 125.954 11.383 125.954 14.583 115.572 14.583 115.572 0.3" />
    <path class="cls-1"
        d="M135.29349,11.68326c2.4,0,3.32-2.121,3.32-4.24206,0-2.12-.92-4.24006-3.32-4.24006-2.401,0-3.32106,2.12-3.32106,4.24006,0,2.121.92,4.24206,3.32106,4.24206m0-11.68317c4.50106,0,7.04209,3.30105,7.04209,7.44111,0,4.142-2.541,7.4421-7.04209,7.4421s-7.0421-3.30005-7.0421-7.4421c0-4.14006,2.541-7.44111,7.0421-7.44111" />
    <path class="cls-1"
        d="M158.535,14.5834h-2.401l-.22-1.56a4.86737,4.86737,0,0,1-3.98105,1.86c-4.32007,0-7.12111-3.3-7.12111-7.44211,0-4.14005,2.801-7.4411,7.12111-7.4411,2.961,0,6.12207,1.58,6.46208,5.16107H154.674c-.12-1.22-1.32-1.96-2.82-1.96-2.401,0-3.321,2.12-3.321,4.24006,0,2.121.92,4.24206,3.321,4.24206,1.84,0,3.08005-.86,3.28006-2.161h-2.6v-2.76H158.535Z" />
    <polygon class="cls-1"
        points="169.174 9.262 169.174 14.583 165.453 14.583 165.453 9.262 160.252 0.3 164.473 0.3 167.314 6.101 170.154 0.3 174.375 0.3 169.174 9.262" />
</svg>